<svg height="512pt" viewBox="0 -16 512 512" width="512pt" xmlns="http://www.w3.org/2000/svg"><path d="m412 430c5.519531 0 10-4.480469 10-10s-4.480469-10-10-10-10 4.480469-10 10 4.480469 10 10 10zm0 0"/><path d="m212 410c-5.519531 0-10 4.480469-10 10s4.480469 10 10 10 10-4.480469 10-10-4.480469-10-10-10zm0 0"/><path d="m10 100c16.542969 0 30 13.457031 30 30v40c0 16.539062 13.457031 30 30 30h30v10c0 49.625 40.375 90 90 90h35.390625c10.195313 17.703125 25.214844 31.5 42.957031 40.070312-12.273437 5.964844-23.328125 14.414063-32.355468 24.949219-7.355469-3.21875-15.464844-5.019531-23.992188-5.019531-33.085938 0-60 26.914062-60 60 0 33.082031 26.914062 60 60 60s60-26.917969 60-60c0-17.308594-7.375-32.917969-19.136719-43.878906 15.078125-16.5 36.5625-26.121094 59.136719-26.121094s44.058594 9.621094 59.136719 26.121094c-11.761719 10.960937-19.136719 26.570312-19.136719 43.878906 0 33.082031 26.914062 60 60 60s60-26.917969 60-60c0-33.085938-26.914062-60-60-60-8.527344 0-16.636719 1.800781-23.992188 5.019531-9.027343-10.535156-20.082031-18.984375-32.355468-24.945312 17.746094-8.570313 32.761718-22.371094 42.957031-40.074219h23.390625c49.625 0 90-40.375 90-90v-20c0-93.738281-76.261719-170-170-170h-11.71875c-4.128906-11.640625-15.246094-20-28.28125-20-16.542969 0-30 13.457031-30 30v110h-57c-5.523438 0-10 4.476562-10 10s4.476562 10 10 10h57v20h-162c-5.515625 0-10-4.484375-10-10s4.484375-10 10-10h25c5.523438 0 10-4.476562 10-10s-4.476562-10-10-10h-25c-16.542969 0-30 13.457031-30 30 0 3.507812.609375 6.871094 1.71875 10h-11.71875c-5.515625 0-10-4.484375-10-10v-40c0-27.570312-22.429688-50-50-50-5.523438 0-10 4.476562-10 10s4.476562 10 10 10zm202 360c-22.054688 0-40-17.945312-40-40 0-22.058594 17.945312-40 40-40s40 17.941406 40 40c0 22.054688-17.945312 40-40 40zm240-40c0 22.054688-17.945312 40-40 40s-40-17.945312-40-40c0-22.058594 17.945312-40 40-40s40 17.941406 40 40zm-140-90c-24.785156 0-47.515625-11.191406-62.496094-30.011719h124.992188c-14.980469 18.820313-37.710938 30.011719-62.496094 30.011719zm110-50h-232c-38.597656 0-70-31.402344-70-70v-10h372v10c0 38.597656-31.402344 70-70 70zm69.671875-100h-159.671875v-140h10c79.347656 0 144.503906 61.9375 149.671875 140zm-199.671875-150c0-5.515625 4.484375-10 10-10s10 4.484375 10 10v150h-20zm0 0"/><path d="m175 160c5.519531 0 10-4.480469 10-10s-4.480469-10-10-10-10 4.480469-10 10 4.480469 10 10 10zm0 0"/></svg>