<svg height="512pt" viewBox="0 0 512 511" width="512pt" xmlns="http://www.w3.org/2000/svg"><path d="m210 181.5c5.519531 0 10-4.480469 10-10s-4.480469-10-10-10-10 4.480469-10 10 4.480469 10 10 10zm0 0"/><path d="m130 181.5c5.519531 0 10-4.480469 10-10s-4.480469-10-10-10-10 4.480469-10 10 4.480469 10 10 10zm0 0"/><path d="m70 406.5c5.519531 0 10-4.480469 10-10s-4.480469-10-10-10-10 4.480469-10 10 4.480469 10 10 10zm0 0"/><path d="m143.269531 224.238281c8.40625 3.957031 17.402344 5.960938 26.730469 5.960938 9.132812 0 17.953125-1.925781 26.21875-5.722657 5.015625-2.308593 7.214844-8.246093 4.90625-13.265624-2.304688-5.015626-8.246094-7.214844-13.261719-4.90625-5.625 2.585937-11.632812 3.894531-17.863281 3.894531-6.363281 0-12.488281-1.363281-18.210938-4.058594-5-2.351563-10.957031-.207031-13.308593 4.792969-2.351563 4.996094-.207031 10.953125 4.789062 13.304687zm0 0"/><path d="m10 512.5h492c5.523438 0 10-4.476562 10-10v-86c0-38.597656-31.402344-70-70-70-5.351562 0-10-4.304688-10-10v-12.5625c18.636719-13.011719 30-34.507812 30-57.4375 0-13.988281 0-26.011719 0-40 0-38.597656-31.402344-70-70-70s-70 31.402344-70 70v40c0 22.929688 11.363281 44.425781 30 57.4375v12.5625c0 5.613281-4.578125 10-10 10-5.414062 0-10.753906.625-15.964844 1.84375-16.425781-26-44.851562-41.84375-76.035156-41.84375h-15.855469l-14.144531-14.144531v-26.671875c15.113281-10.6875 27.042969-26.308594 33.769531-44.183594h6.230469c22.054688 0 40-17.945312 40-40 0-22.058594-17.945312-40-40-40v-26.015625c18.378906-20.214844 22.980469-44.476563 13.265625-70.425781-5.082031-13.574219-13.957031-27.214844-26.375-40.550782-.277344-.296874-.507813-.542968-.679687-.734374-2.382813-2.621094-5.976563-3.7851568-9.445313-3.0625-3.46875.722656-6.292969 3.230468-7.429687 6.585937-1.082032 3.203125-2.683594 8.671875-5.039063 17.21875-1.148437 4.175781-5.015625 6.984375-9.625 6.984375h-64.671875c-18.96875 0-34.894531 13.273438-38.984375 31.015625-17.742187 4.089844-31.015625 20.015625-31.015625 38.984375v40c-22.054688 0-40 17.945312-40 40s17.945312 40 40 40h5.152344c6.453125 18.179688 18.761718 34.023438 34.847656 44.8125v26.042969l-14.144531 14.144531h-15.855469c-49.625 0-90 40.375-90 90v106c0 5.523438 4.476562 10 10 10zm168.03125-231.347656c7.589844-.664063 14.933594-2.304688 21.96875-4.898438v16.738282l-30 37.5-30-37.5v-16.621094c11.75 4.15625 24.609375 5.949218 38.03125 4.78125zm6.222656 63.539062 26.574219-33.21875 7.730469 7.726563-13.660156 40.976562zm-55.082031-33.21875 26.574219 33.21875-20.644532 15.484375-13.660156-40.976562zm40.828125 47.527344 10 7.5v20h-20v-20zm-10.753906 47.5h21.507812l6.761719 86h-35.027344zm212.753906-70v-2.917969c6.460938 1.921875 13.199219 2.917969 20 2.917969s13.539062-.996094 20-2.917969v2.917969c0 6.628906 2.140625 12.882812 5.953125 17.96875-7.199219 7.71875-16.339844 12.03125-25.953125 12.03125-9.617188 0-18.757812-4.3125-25.957031-12.035156 3.820312-5.09375 5.957031-11.34375 5.957031-17.964844zm-30-110c0-27.570312 22.429688-50 50-50s50 22.429688 50 50v10h-20c-4.65625 0-20-6.234375-20-20 0-5.523438-4.476562-10-10-10s-10 4.476562-10 10c0 11.027344-8.972656 20-20 20h-20zm0 40v-10h20c12.167969 0 23.082031-5.460938 30.425781-14.058594 1.410157 1.507813 2.953125 2.9375 4.628907 4.28125 7.523437 6.03125 17.082031 9.777344 24.945312 9.777344h20v10c0 27.246094-22.085938 50-50 50-27.929688 0-50-22.765625-50-50zm7.191406 99.113281c11.210938 13.363281 26.441406 20.886719 42.808594 20.886719s31.597656-7.523438 42.808594-20.890625c2.335937.578125 4.746094.890625 7.191406.890625 27.570312 0 50 22.429688 50 50v76h-30v-76c0-5.523438-4.476562-10-10-10s-10 4.476562-10 10v76h-106v-76c0-5.523438-4.476562-10-10-10s-10 4.476562-10 10v76h-24v-76c0-29.765625 25.066406-50 50-50 2.445312 0 4.855469-.3125 7.191406-.886719zm-42.164062-9.746093c-21.335938 12.355468-35.027344 35.441406-35.027344 60.632812v76h-64.425781l-7.574219-96.390625v-14.609375l4 3c5.425781 4.066406 13.316406 1.675781 15.488281-4.839844l17.71875-53.160156h12.792969c22.980469 0 44.035156 11.058594 57.027344 29.367188zm-27.027344-174.367188c0 11.027344-8.972656 20-20 20h-1.050781c.695312-4.6875 1.050781-9.414062 1.050781-14.148438v-25.851562c11.027344 0 20 8.972656 20 20zm-180-80c0-11.027344 8.972656-20 20-20 5.523438 0 10-4.476562 10-10 0-11.027344 8.972656-20 20-20h64.671875c13.199219 0 24.449219-8.054688 28.457031-20.191406 5.03125 6.988281 8.851563 13.933594 11.40625 20.761718 6.996094 18.6875 4.109375 34.898438-8.839844 49.429688h-107.414062c-7.894531 0-15.625 3.203125-21.210938 8.789062l-17.070312 17.070313zm-40 80c0-11.027344 8.972656-20 20-20v30c0 3.351562.195312 6.6875.5625 10h-.5625c-11.027344 0-20-8.972656-20-20zm40 10v-35.855469l31.210938-31.210937c1.863281-1.863282 4.4375-2.933594 7.066406-2.933594h101.722656v65.851562c0 37.078126-26.9375 70.667969-63.707031 73.875-41.445313 3.597657-76.292969-28.921874-76.292969-69.726562zm-80 205c0-38.597656 31.402344-70 70-70h12.792969l17.71875 53.160156c2.171875 6.511719 10.0625 8.910156 15.488281 4.839844l4-3v14.609375l-7.574219 96.390625h-52.425781v-56c0-5.523438-4.476562-10-10-10s-10 4.476562-10 10v56h-40zm0 0"/></svg>