<svg height="512pt" viewBox="-56 0 512 512" width="512pt" xmlns="http://www.w3.org/2000/svg"><path d="m230 150c0 5.519531 4.480469 10 10 10s10-4.480469 10-10-4.480469-10-10-10-10 4.480469-10 10zm0 0"/><path d="m170 150c0-5.519531-4.480469-10-10-10s-10 4.480469-10 10 4.480469 10 10 10 10-4.480469 10-10zm0 0"/><path d="m70 406c5.519531 0 10-4.480469 10-10s-4.480469-10-10-10-10 4.480469-10 10 4.480469 10 10 10zm0 0"/><path d="m217.863281 184.804688c-5.625 2.585937-11.632812 3.894531-17.863281 3.894531-6.363281 0-12.488281-1.363281-18.210938-4.058594-4.996093-2.351563-10.953124-.207031-13.308593 4.789063-2.351563 5-.207031 10.957031 4.789062 13.308593 8.40625 3.957031 17.398438 5.960938 26.730469 5.960938 9.132812 0 17.953125-1.925781 26.21875-5.722657 5.015625-2.308593 7.214844-8.246093 4.90625-13.261718-2.304688-5.019532-8.246094-7.21875-13.261719-4.910156zm0 0"/><path d="m135.855469 286h-25.855469c-60.417969 0-110 48.871094-110 110v106c0 5.523438 4.476562 10 10 10h380c5.523438 0 10-4.476562 10-10v-106c0-61.085938-49.53125-110-110-110h-25.855469l-14.144531-14.144531v-25.226563c24.964844-14.394531 42.324219-38.554687 47.996094-66.628906h2.003906c22.054688 0 40-17.945312 40-40 0-11.9375-5.265625-22.664062-13.585938-30 8.320313-7.335938 13.585938-18.0625 13.585938-30 0-44.113281-35.886719-80-80-80-8.722656 0-17.117188 2.21875-24.589844 6.453125-11.277344-4.28125-23.164062-6.453125-35.410156-6.453125-11.132812 0-22.015625 1.808594-32.425781 5.378906-6.964844-3.53125-14.671875-5.378906-22.574219-5.378906-44.113281 0-80 35.886719-80 80 0 10.800781 4.308594 20.605469 11.289062 27.808594-9.871093 7.292968-16.289062 19.003906-16.289062 32.191406 0 22.054688 17.945312 40 40 40h2.003906c5.671875 28.074219 23.03125 52.234375 47.996094 66.628906v25.226563zm64.144531-26c10.328125 0 20.363281-1.539062 30-4.574219v17.066407l-30 37.5-30-37.5v-17.066407c9.636719 3.035157 19.671875 4.574219 30 4.574219zm-14.253906 64.191406-20.644532 15.484375-13.660156-40.976562 7.730469-7.726563zm14.253906 14.308594 28.558594 21.417969-28.558594 104.238281-28.558594-104.238281zm40.828125-47.527344 7.730469 7.726563-13.660156 40.976562-20.644532-15.484375zm-220.828125 105.027344c0-30.402344 15.296875-58.339844 40-74.84375v34.84375c0 5.523438 4.476562 10 10 10s10-4.476562 10-10v-44.878906c9.597656-3.394532 19.660156-5.121094 30-5.121094h22.792969l17.636719 52.910156 36.460937 133.089844h-106.890625v-56c0-5.523438-4.476562-10-10-10s-10 4.476562-10 10v56h-40zm360 0v96h-40v-170.84375c24.703125 16.503906 40 44.441406 40 74.84375zm-60-84.878906v180.878906h-106.890625l36.460937-133.089844 17.636719-52.910156h22.792969c10.339844 0 20.402344 1.726562 30 5.121094zm0-171.121094c0 11.027344-8.972656 20-20 20v-40c11.027344 0 20 8.972656 20 20zm0-60c0 11.027344-8.972656 20-20 20 0-31.871094-15.183594-61.367188-39.996094-80 33.082032.003906 59.996094 26.917969 59.996094 60zm-180.355469-59.75c-23.71875 17.96875-39.421875 46.535156-39.632812 79.09375-8.617188-2.222656-15.011719-10.039062-15.011719-19.34375 0-31.277344 24.0625-57.027344 54.644531-59.75zm-59.644531 119.75c0-11.027344 8.972656-20 20-20v40c-11.027344 0-20-8.972656-20-20zm40 20v-60c0-44.914062 36.289062-80 80-80 44.261719 0 80 35.902344 80 80v60c0 44.355469-35.820312 80-80 80-44.152344 0-80-35.613281-80-80zm0 0"/><path d="m170 80h60c5.523438 0 10-4.476562 10-10s-4.476562-10-10-10h-60c-5.523438 0-10 4.476562-10 10s4.476562 10 10 10zm0 0"/><path d="m180 120h40c5.523438 0 10-4.476562 10-10s-4.476562-10-10-10h-40c-5.523438 0-10 4.476562-10 10s4.476562 10 10 10zm0 0"/></svg>