<svg height="512pt" viewBox="-76 0 512 512" width="512pt" xmlns="http://www.w3.org/2000/svg"><path d="m220 200c5.519531 0 10-4.480469 10-10s-4.480469-10-10-10-10 4.480469-10 10 4.480469 10 10 10zm0 0"/><path d="m150 190c0-5.519531-4.480469-10-10-10s-10 4.480469-10 10 4.480469 10 10 10 10-4.480469 10-10zm0 0"/><path d="m80 420c5.519531 0 10-4.480469 10-10s-4.480469-10-10-10-10 4.480469-10 10 4.480469 10 10 10zm0 0"/><path d="m153.269531 242.738281c8.40625 3.957031 17.398438 5.960938 26.730469 5.960938 9.132812 0 17.953125-1.925781 26.21875-5.722657 5.015625-2.308593 7.214844-8.246093 4.90625-13.261718-2.304688-5.019532-8.246094-7.21875-13.261719-4.910156-5.625 2.585937-11.632812 3.894531-17.863281 3.894531-6.363281 0-12.488281-1.363281-18.210938-4.058594-4.996093-2.351563-10.953124-.207031-13.308593 4.789063-2.347657 5-.207031 10.957031 4.789062 13.308593zm0 0"/><path d="m360 502v-72c0-60.441406-49.09375-110-110-110-3.90625 0-7.691406-1.132812-10.960938-3.285156-5.660156-3.707032-9.039062-9.953125-9.039062-16.714844v-13.390625c21.8125-12.574219 37.933594-32.683594 45.417969-56.609375h4.582031c22.054688 0 40-17.945312 40-40s-17.945312-40-40-40v-10c0-36.101562-19.335938-68.953125-50.121094-86.683594.074219-1.101562.121094-2.207031.121094-3.316406 0-27.570312-22.429688-50-50-50s-50 22.429688-50 50c0 1.109375.046875 2.214844.121094 3.316406-30.683594 17.675782-50.121094 50.457032-50.121094 86.683594v10c-22.054688 0-40 17.945312-40 40s17.945312 40 40 40h5.527344c7.910156 23.738281 23.695312 43.707031 44.472656 56.214844v13.785156c0 11.117188-9.054688 20-20 20-60.921875 0-110 49.570312-110 110v72c0 5.523438 4.476562 10 10 10h340c5.523438 0 10-4.476562 10-10zm-210-202v-4.667969c6.535156 2.113281 13.289062 3.539063 20.210938 4.203125 13.480468 1.28125 26.957031-.109375 39.789062-4.136718v4.601562c0 9.453125 3.308594 18.398438 9.152344 25.460938-10.816406 9.324218-24.648438 14.539062-39.152344 14.539062s-28.335938-5.214844-39.15625-14.539062c5.847656-7.066407 9.15625-16.011719 9.15625-25.460938zm150-110c0 11.027344-8.972656 20-20 20h-.503906c.328125-3.316406.503906-6.65625.503906-10v-30c11.027344 0 20 8.972656 20 20zm-120-170c14.632812 0 26.84375 10.53125 29.46875 24.410156-9.472656-2.925781-19.332031-4.410156-29.46875-4.410156s-19.996094 1.484375-29.46875 4.410156c2.625-13.878906 14.835938-24.410156 29.46875-24.410156zm-34.664062 47.878906c10.839843-5.230468 22.5-7.878906 34.664062-7.878906 45.167969 0 80 37.011719 80 80v8.753906c-16.097656-4.082031-28.28125-17.820312-29.839844-35.113281-.339844-3.773437-2.785156-7.03125-6.3125-8.414063-3.53125-1.378906-7.539062-.648437-10.351562 1.890626-9.195313 8.308593-21.09375 12.882812-33.496094 12.882812s-24.300781-4.574219-33.496094-12.882812c-2.8125-2.539063-6.816406-3.269532-10.351562-1.890626-3.527344 1.382813-5.972656 4.640626-6.3125 8.414063-1.558594 17.292969-13.742188 31.03125-29.839844 35.113281v-8.753906c0-30.550781 17.792969-58.859375 45.335938-72.121094zm-85.335938 122.121094c0-11.027344 8.972656-20 20-20v26.128906c0 4.632813.3125 9.265625.914062 13.871094h-.914062c-11.027344 0-20-8.972656-20-20zm42.691406 27.53125c-.035156-.132812-.070312-.261719-.109375-.390625-1.714843-6.894531-2.582031-13.960937-2.582031-21.011719v-26.976562c21.40625-3.601563 38.730469-18.378906 46.121094-37.886719 10.289062 5.695313 21.914062 8.734375 33.878906 8.734375s23.589844-3.039062 33.878906-8.734375c7.386719 19.503906 24.710938 34.285156 46.121094 37.886719v30.847656c0 6.011719-.667969 11.996094-1.980469 17.785156-8.863281 39.027344-45.277343 65.703125-85.902343 61.839844-33.488282-3.214844-60.847657-28.410156-69.425782-62.09375zm21.5625 119.84375c14.875 14.460938 34.785156 22.625 55.746094 22.625 20.964844 0 40.871094-8.164062 55.746094-22.625 4.519531 1.726562 9.339844 2.625 14.253906 2.625 3.207031 0 6.40625.175781 9.578125.511719-14.996094 19.75-36.738281 33.28125-61.394531 37.835937-4.742188.875-8.183594 5.007813-8.183594 9.832032v103.820312h-20v-103.820312c0-4.824219-3.441406-8.957032-8.1875-9.832032-24.65625-4.550781-46.394531-18.085937-61.390625-37.835937 3.171875-.335938 6.367187-.511719 9.574219-.511719 4.921875 0 9.742187-.898438 14.257812-2.625zm-104.253906 92.625c0-38.101562 24.074219-71.910156 59.386719-84.660156 16.433593 25.296875 41.53125 43.378906 70.613281 50.867187v95.792969h-60v-42c0-5.523438-4.476562-10-10-10s-10 4.476562-10 10v42h-50zm320 62h-30v-62c0-5.523438-4.476562-10-10-10s-10 4.476562-10 10v62h-80v-95.792969c29.082031-7.488281 54.179688-25.570312 70.613281-50.867187 35.3125 12.746094 59.386719 46.558594 59.386719 84.660156zm0 0"/></svg>