<svg height="512pt" viewBox="-26 0 512 512" width="512pt" xmlns="http://www.w3.org/2000/svg"><path d="m419.539062 160h30.460938c5.523438 0 10-4.476562 10-10s-4.476562-10-10-10h-19.734375c1.464844-3.695312 2.625-7.292969 3.535156-10.742188 8.960938-34.070312-3.316406-71.75-19.328125-85.949218-18.886718-18.121094-56.5625-27.597656-94.472656-13.785156v-19.523438c0-5.523438-4.476562-10-10-10s-10 4.476562-10 10v29.101562c-17.222656 10.359376-31.84375 25.128907-43.628906 44.046876l-10.777344-10.78125c-3.90625-3.902344-10.238281-3.902344-14.144531 0-3.90625 3.90625-3.90625 10.238281 0 14.144531l14.988281 14.988281c-5.480469 11.734375-10.027344 24.667969-13.585938 38.605469-7.542968-.480469-15.355468.960937-23.523437 3.238281-3.414063-9.0625-8.027344-18.046875-13.664063-26.585938l9.1875-9.183593c3.90625-3.90625 3.90625-10.238281 0-14.144531s-10.238281-3.90625-14.144531 0l-7.304687 7.308593c-2.203125-2.507812-4.476563-4.957031-6.832032-7.308593-11.101562-11.101563-23.542968-20.175782-36.570312-26.855469v-26.574219c0-5.523438-4.476562-10-10-10s-10 4.476562-10 10v18.378906c-4.40625-1.359375-8.832031-2.445312-13.257812-3.226562-26.015626-4.59375-48.925782 1.46875-64.523438 17.066406-17.847656 17.847656-21.558594 43.199219-16.417969 67.78125h-15.800781c-5.523438 0-10 4.476562-10 10s4.476562 10 10 10h21.957031c6.800781 16.644531 17.558594 32.65625 31.472657 46.570312 2.371093 2.371094 4.808593 4.648438 7.304687 6.832032l-7.304687 7.304687c-3.90625 3.90625-3.90625 10.238281 0 14.144531s10.234374 3.90625 14.140624 0l9.203126-9.199218c14.152343 9.34375 29.394531 15.828125 44.46875 18.808594-1.089844 11.980468-.992188 24.878906.296874 38.539062h-21.539062c-5.523438 0-10 4.476562-10 10s4.476562 10 10 10h24.179688c1.238281 7.421875 2.800781 15.105469 4.675781 23h-8.855469c-16.542969 0-30 13.457031-30 30 0 14.5 10.34375 26.632812 24.039062 29.402344l1.660157 12.296875c.675781 5.019531 4.96875 8.664062 9.894531 8.664062.445312 0 .898438-.03125 1.351562-.089843 5.472657-.742188 9.3125-5.777344 8.574219-11.25l-1.21875-9.023438h171.398438l-13.148438 97.421875c-.695312 4.890625-4.953125 8.578125-9.902343 8.578125h-125.296876c-4.949218 0-9.207031-3.6875-9.890624-8.507812l-1.238282-9.179688c-.742187-5.476562-5.777344-9.308594-11.25-8.574219-5.472656.738281-9.3125 5.773438-8.570312 11.25l1.246094 9.25c2.089843 14.6875 14.859374 25.761719 29.703124 25.761719h125.296876c14.84375 0 27.613281-11.074219 29.710937-25.832031l13.601563-100.765625c13.695312-2.769532 24.039062-14.902344 24.039062-29.402344 0-16.542969-13.457031-30-30-30h-8.851562c3.597656-15.128906 6.050781-29.515625 7.339843-43h21.511719c5.523438 0 10-4.476562 10-10s-4.476562-10-10-10h-20.453125c.117187-14.898438-1.375-28.707031-4.460937-41.246094 19.34375-6.265625 35.394531-13.460937 48.695312-21.1875l15.359375 15.355469c3.902344 3.90625 10.234375 3.90625 14.140625 0s3.90625-10.238281 0-14.144531l-12.457031-12.457032c12.683593-9.527343 21.964843-19.515624 28.714843-29.320312zm-115.394531 18.039062c-6.722656-8.414062-14.671875-15.59375-23.765625-21.472656 9.75-13.585937 22.019532-27.875 35.921875-41.777344 18.765625-18.765624 38.558594-34.8125 55.730469-45.191406 17.464844-10.554687 26.464844-11.722656 28.996094-11.253906.46875 2.527344-.691406 11.523438-11.246094 28.992188-10.378906 17.175781-26.429688 36.972656-45.203125 55.742187-13.410156 13.410156-27.25 25.363281-40.433594 34.960937zm-100.359375 147.960938c-2.394531-15.652344-3.785156-34.816406-3.785156-53 0-30.507812 4.035156-60.683594 11.074219-82.785156 6.972656-21.894532 15.066406-30.0625 18.808593-30.210938.011719 0 .023438-.003906.035157-.003906h.164062c.011719 0 .023438.003906.035157.003906 3.742187.148438 11.835937 8.320313 18.808593 30.210938 7.039063 22.101562 11.074219 52.277344 11.074219 82.785156 0 18.183594-1.390625 37.347656-3.785156 53zm171.738282-280.976562c-25.136719 11.757812-54.425782 36.6875-73.363282 55.625-15.453125 15.453124-29.0625 31.441406-39.71875 46.628906-3.503906-1.410156-6.835937-2.542969-9.890625-3.445313 3.816407-14.621093 8.785157-27.949219 14.855469-39.683593.011719-.023438.023438-.046876.035156-.070313 25.527344-49.277344 69.820313-68.121094 108.082032-59.054687zm-213.09375 62.546874c13.148437 13.148438 22.648437 28.0625 28.210937 42.890626-4.054687 1.988281-7.949219 4.226562-11.671875 6.6875-8.683594-11.800782-19.167969-23.917969-30.6875-35.429688-17.507812-17.511719-40.710938-36.863281-63.023438-47.835938 28.074219-2.277343 57.328126 13.847657 77.171876 33.6875zm-18.230469 89c-12.476563-8.644531-25.804688-19.902343-38.339844-32.433593-17.246094-17.242188-31.714844-35.53125-40.75-51.503907-9.457031-16.734374-9.339844-24.667968-8.71875-26.242187 1.574219-.621094 9.507813-.738281 26.242187 8.71875 15.972657 9.035156 34.265626 23.503906 51.507813 40.753906 11.085937 11.074219 21.109375 22.695313 29.296875 33.929688-7.746094 7.722656-14.179688 16.679687-19.238281 26.777343zm-100.316407-81.3125c10.957032 22.28125 30.289063 45.480469 47.835938 63.023438 14.855469 14.859375 30.289062 27.660156 44.964844 37.351562-.882813 2.949219-1.675782 5.96875-2.371094 9.054688-19.734375-4.070312-40.007812-15.527344-56.742188-32.257812-25.863281-25.863282-35.4375-55.574219-33.6875-77.171876zm108.339844 122.277344c1.253906-8.167968 3.230469-15.875 5.878906-22.910156 7.503907-19.984375 20.742188-35.5 39.449219-45.253906-11.59375 25.722656-17.550781 64.9375-17.550781 103.628906 0 17.972656 1.304688 36.945312 3.570312 53h-24.121093c-6.996094-27.835938-11.667969-59.6875-7.226563-88.464844zm187.777344 118.464844c0 5.515625-4.484375 10-10 10h-200c-5.515625 0-10-4.484375-10-10s4.484375-10 10-10h200c5.515625 0 10 4.484375 10 10zm-63.570312-30c2.265624-16.054688 3.570312-35.027344 3.570312-53 0-38.765625-5.980469-78.054688-17.617188-103.773438 19.53125 10.09375 33.523438 26.65625 40.917969 49.054688 4.960938 14.953125 6.980469 32.601562 6.023438 52.460938-.511719 2.230468-.023438 20.5-8.765625 55.257812zm42.367187-123.242188c-1.15625-2.714843-2.398437-5.359374-3.734375-7.925781 14.285156-10.320312 29.242188-23.195312 43.660156-37.609375 18.839844-18.839844 43.613282-47.929687 55.445313-72.980468 3.03125 11.355468 4.152343 25.25.289062 39.925781-8.988281 34.167969-42.007812 61.238281-95.660156 78.589843zm0 0"/><path d="m151 436c0-5.519531-4.480469-10-10-10s-10 4.480469-10 10 4.480469 10 10 10 10-4.480469 10-10zm0 0"/></svg>