<svg height="512pt" viewBox="0 -16 512 512" width="512pt" xmlns="http://www.w3.org/2000/svg"><path d="m256 120c5.519531 0 10-4.480469 10-10s-4.480469-10-10-10-10 4.480469-10 10 4.480469 10 10 10zm0 0"/><path d="m10 480h492c5.523438 0 10-4.476562 10-10v-20c0-13.035156-8.359375-24.152344-20-28.28125v-307.574219l11.210938-11.210937c5.585937-5.585938 8.789062-13.320313 8.789062-21.210938v-31.722656c0-5.523438-4.476562-10-10-10h-10v-30c0-5.523438-4.476562-10-10-10h-452c-5.523438 0-10 4.476562-10 10v30h-10c-5.523438 0-10 4.476562-10 10v31.71875c0 7.894531 3.203125 15.625 8.789062 21.210938l11.210938 11.214843v307.574219c-11.640625 4.128906-20 15.246094-20 28.28125v20c0 5.523438 4.476562 10 10 10zm416-60v-300h46v300zm-386-400h432v20h-432zm-20 40h472v21.71875c0 2.628906-1.066406 5.207031-2.929688 7.070312l-11.210937 11.210938h-181.859375c-5.523438 0-10 4.476562-10 10s4.476562 10 10 10h110v300h-20v-201.71875c0-7.894531-3.203125-15.625-8.789062-21.210938l-28.28125-28.28125c-5.582032-5.585937-13.316407-8.789062-21.210938-8.789062h-143.4375c-7.894531 0-15.625 3.203125-21.210938 8.789062l-28.28125 28.28125c-5.585937 5.582032-8.789062 13.316407-8.789062 21.210938v201.71875h-20v-300h110c5.523438 0 10-4.476562 10-10s-4.476562-10-10-10h-181.859375l-11.210937-11.210938c-1.863282-1.863281-2.929688-4.4375-2.929688-7.070312zm325.265625 360c-3.03125-20.867188-15.382813-39.144531-33.039063-49.882812 8.863282-7.339844 14.472657-18.425782 14.472657-30.828126 0-17.527343-9.351563-49.300781-10.417969-52.863281-.910156-3.042969-3.210938-5.472656-6.199219-6.546875-2.984375-1.074218-6.308593-.664062-8.945312 1.101563-.105469.070312-1.34375.902343-3.378907 2.324219-12.207031-20.328126-33.136718-40.285157-34.179687-41.273438-3.855469-3.65625-9.898437-3.65625-13.757813 0-1.042968.988281-21.972656 20.941406-34.179687 41.273438-2.035156-1.425782-3.277344-2.257813-3.382813-2.328126-2.640624-1.765624-5.957031-2.171874-8.941406-1.09375-2.988281 1.070313-5.285156 3.5-6.195312 6.542969-1.066406 3.5625-10.421875 35.335938-10.421875 52.863281 0 12.109376 5.417969 22.96875 13.941406 30.308594-18.898437 11.078125-30.941406 29.8125-33.910156 50.402344h-20.730469v-201.71875c0-2.628906 1.066406-5.207031 2.929688-7.070312l28.28125-28.277344c1.863281-1.863282 4.4375-2.933594 7.066406-2.933594h143.441406c2.628906 0 5.207031 1.070312 7.066406 2.933594l28.28125 28.277344c1.863282 1.863281 2.929688 4.441406 2.929688 7.070312v201.71875zm-98.566406-70.699219c.082031-3.058593 4.242187-11.769531 10-21.476562 5.757812 9.703125 9.917969 18.410156 10 21.472656-.003907 5.511719-4.488281 9.992187-10 9.992187s-10-4.484374-10-9.988281zm40 9.988281c-.605469 0-1.199219.0625-1.777344.167969 1.148437-3.175781 1.777344-6.597656 1.777344-10.167969 0-12.785156-15.226563-36.207031-21.769531-45.683593-1.867188-2.703125-4.945313-4.316407-8.230469-4.316407-3.285157 0-6.359375 1.613282-8.226563 4.316407-6.546875 9.476562-21.773437 32.898437-21.773437 45.683593 0 3.570313.628906 6.992188 1.777343 10.167969-.578124-.105469-1.167968-.167969-1.777343-.167969-11.027344 0-20-8.972656-20-20 0-8.207031 3.042969-22.34375 5.871093-33.535156.214844.160156.433594.324219.652344.488282 2.484375 1.863281 5.691406 2.464843 8.683594 1.628906 2.992188-.832032 5.425781-3.007813 6.585938-5.886719 5.042968-12.484375 18.761718-28.554687 28.207031-38.507813 9.453125 9.957032 23.167969 26.023438 28.207031 38.507813 1.164062 2.878906 3.597656 5.050781 6.585938 5.886719 2.988281.835937 6.195312.234375 8.679687-1.625.222656-.164063.441406-.328125.65625-.488282 2.828125 11.1875 5.871094 25.328126 5.871094 33.53125 0 11.125-8.964844 20-20 20zm-50.699219 20.710938h40c24.257812 0 44.300781 17.242188 48.972656 40h-137.933594c4.625-22.300781 24.394532-40 48.960938-40zm-196 40v-300h46v300zm-20 30c0-5.515625 4.484375-10 10-10h452c5.515625 0 10 4.484375 10 10v10h-472zm0 0"/></svg>