<svg height="512pt" viewBox="0 -16 512 512" width="512pt" xmlns="http://www.w3.org/2000/svg"><path d="m482 200h-95.242188l-2.667968-20h91.910156c5.523438 0 10-4.476562 10-10v-160c0-5.523438-4.476562-10-10-10h-112c-5.523438 0-10 4.476562-10 10s4.476562 10 10 10h102v100h-240v-100h58c5.523438 0 10-4.476562 10-10s-4.476562-10-10-10h-68c-5.523438 0-10 4.476562-10 10v160c0 5.523438 4.476562 10 10 10h91.910156l-2.667968 20h-125.242188v-150c0-5.523438-4.476562-10-10-10h-120c-5.523438 0-10 4.476562-10 10v150h-10c-16.542969 0-30 13.457031-30 30 0 13.035156 8.359375 24.152344 20 28.28125v211.71875c0 5.523438 4.476562 10 10 10h40c5.523438 0 10-4.476562 10-10v-130h170c5.523438 0 10-4.476562 10-10v-30h172v170c0 5.523438 4.476562 10 10 10h40c5.523438 0 10-4.476562 10-10v-211.71875c11.640625-4.128906 20-15.246094 20-28.28125 0-16.542969-13.457031-30-30-30zm-256-60h240v20h-240zm102.085938 40h35.828124l2.664063 20h-41.15625zm-268.085938-120h100v140h-20v-70c0-5.523438-4.476562-10-10-10h-40c-5.523438 0-10 4.476562-10 10v70h-20zm40 140v-60h20v60zm-40 260h-20v-200h20zm180-140h-160v-60h160zm20-40v-20h172v20zm192 180v-200h20v200zm30-220h-452c-5.515625 0-10-4.484375-10-10s4.484375-10 10-10h452c5.515625 0 10 4.484375 10 10s-4.484375 10-10 10zm0 0"/><path d="m90 100h40c5.523438 0 10-4.476562 10-10s-4.476562-10-10-10h-40c-5.523438 0-10 4.476562-10 10s4.476562 10 10 10zm0 0"/><path d="m190 280h-60c-5.523438 0-10 4.476562-10 10s4.476562 10 10 10h60c5.523438 0 10-4.476562 10-10s-4.476562-10-10-10zm0 0"/><path d="m334 10c0-5.519531-4.480469-10-10-10s-10 4.480469-10 10 4.480469 10 10 10 10-4.480469 10-10zm0 0"/></svg>