<svg height="512pt" viewBox="-86 0 512 512.00088" width="512pt" xmlns="http://www.w3.org/2000/svg"><path d="m210 180c5.519531 0 10-4.480469 10-10s-4.480469-10-10-10-10 4.480469-10 10 4.480469 10 10 10zm0 0"/><path d="m130 180c5.519531 0 10-4.480469 10-10s-4.480469-10-10-10-10 4.480469-10 10 4.480469 10 10 10zm0 0"/><path d="m143.273438 222.738281c8.402343 3.957031 17.394531 5.960938 26.726562 5.960938 9.136719 0 17.953125-1.925781 26.21875-5.722657 5.019531-2.308593 7.214844-8.246093 4.90625-13.261718-2.304688-5.019532-8.246094-7.21875-13.261719-4.910156-5.625 2.585937-11.632812 3.894531-17.863281 3.894531-6.363281 0-12.488281-1.363281-18.210938-4.058594-4.996093-2.351563-10.953124-.207031-13.304687 4.789063-2.351563 5-.210937 10.957031 4.789063 13.308593zm0 0"/><path d="m330 512c5.523438 0 10-4.476562 10-10v-106c0-40.917969-27.53125-76.625-67.015625-87.027344-.015625-.003906-.03125-.007812-.046875-.011718-.152344-.039063-.296875-.085938-.449219-.125-19.628906-5.039063-52.488281.390624-52.488281-32.835938v-11.816406c15.117188-10.683594 27.042969-26.304688 33.769531-44.183594h6.230469c22.058594 0 40-17.945312 40-40s-17.941406-40-40-40v-26c28.265625-31.050781 23.652344-70.863281-12.992188-109.875-.332031-.351562-.601562-.636719-.796874-.851562-2.382813-2.621094-5.972657-3.785157-9.445313-3.0625-3.46875.722656-6.292969 3.230468-7.429687 6.585937-1.070313 3.175781-2.71875 8.804687-5.039063 17.21875-1.480469 5.398437-7.226563 5.984375-9.625 5.984375h-64.671875c-18.96875 0-34.894531 13.269531-38.980469 31.015625-17.746093 4.089844-31.019531 20.015625-31.019531 38.984375v40c-22.054688 0-40 17.945312-40 40s17.945312 40 40 40h5.152344c6.457031 18.179688 18.761718 34.023438 34.847656 44.8125v11.1875c0 9.527344-4.375 18.273438-12 24-.957031.71875-1.976562 1.394531-3 1.988281-4.542969 2.625-9.730469 4.011719-15 4.011719-7.59375 0-15.160156.953125-22.492188 2.835938-35.4375 9.121093-62.285156 39.636718-66.8125 75.933593-.6835932 5.476563 3.207032 10.476563 8.6875 11.160157 5.476563.679687 10.476563-3.203126 11.160157-8.6875 2.964843-23.773438 18.246093-44.351563 39.457031-54.488282v60.21875l-14.964844 22.445313c-3.292968 4.949219-5.035156 10.703125-5.035156 16.640625v59.941406h-20v-26c0-5.523438-4.476562-10-10-10s-10 4.476562-10 10v36c0 5.523438 4.476562 10 10 10zm-10-116v96h-20v-59.9375c0-5.941406-1.738281-11.695312-5.039062-16.648438l-14.960938-22.441406v-60.238281c24.070312 11.394531 40 35.816406 40 63.265625zm-60-69.28125v59.28125h-20v-61.015625c3.28125.667969 6.628906 1.015625 10 1.015625 3.351562 0 6.695312.246094 10 .71875zm-140 59.28125v-57.503906c14.007812 11.277344 31.449219 17.503906 50 17.503906s35.992188-6.226562 50-17.503906v57.503906zm58.03125-106.347656c7.589844-.664063 14.9375-2.304688 21.96875-4.898438v1.246094c0 12.238281 4.347656 23.695312 12.15625 32.679688-11.167969 11.085937-26.101562 17.320312-42.15625 17.320312-16.050781 0-30.988281-6.234375-42.152344-17.320312 7.808594-8.984376 12.152344-20.441407 12.152344-32.679688v-1.128906c11.75 4.15625 24.609375 5.949218 38.03125 4.78125zm101.96875-99.652344c0 11.027344-8.972656 20-20 20h-1.046875c.691406-4.6875 1.046875-9.414062 1.046875-14.148438v-25.851562c11.027344 0 20 8.972656 20 20zm-180-80c0-11.027344 8.972656-20 20-20 5.523438 0 10-4.476562 10-10 0-11.027344 8.972656-20 20-20h64.671875c13.605469 0 24.640625-7.546875 28.507813-19.339844 14.945312 20.375 23.425781 45.78125 2.511718 69.339844h-107.410156c-7.894531 0-15.625 3.203125-21.210938 8.789062l-17.070312 17.070313zm-40 80c0-11.027344 8.972656-20 20-20v30c0 3.351562.195312 6.6875.5625 10h-.5625c-11.027344 0-20-8.972656-20-20zm40 10v-35.859375l31.210938-31.210937c1.863281-1.863282 4.441406-2.929688 7.070312-2.929688h101.71875v65.851562c0 37.074219-26.933594 70.664063-63.707031 73.875-41.433594 3.609376-76.292969-28.914062-76.292969-69.726562zm0 134.984375v61.015625h-20v-59.28125c3.304688-.46875 6.648438-.71875 10-.71875 3.371094 0 6.71875-.347656 10-1.015625zm-40 107.078125c0-1.984375.582031-3.90625 1.679688-5.554688l13.671874-20.507812h189.296876l13.667968 20.503906c1.105469 1.652344 1.6875 3.574219 1.6875 5.558594v59.9375h-220.003906zm0 0"/><path d="m230 426h-120c-5.519531 0-10 4.476562-10 10s4.480469 10 10 10h120c5.523438 0 10-4.476562 10-10s-4.476562-10-10-10zm0 0"/><path d="m10 436c5.519531 0 10-4.480469 10-10s-4.480469-10-10-10-10 4.480469-10 10 4.480469 10 10 10zm0 0"/></svg>