<svg height="512pt" viewBox="0 0 512 512" width="512pt" xmlns="http://www.w3.org/2000/svg"><path d="m230 160c-5.519531 0-10 4.480469-10 10s4.480469 10 10 10 10-4.480469 10-10-4.480469-10-10-10zm0 0"/><path d="m190 452c-5.519531 0-10 4.480469-10 10s4.480469 10 10 10 10-4.480469 10-10-4.480469-10-10-10zm0 0"/><path d="m150 160c-5.519531 0-10 4.480469-10 10s4.480469 10 10 10 10-4.480469 10-10-4.480469-10-10-10zm0 0"/><path d="m207.863281 204.804688c-5.625 2.585937-11.632812 3.894531-17.863281 3.894531-6.363281 0-12.488281-1.363281-18.210938-4.058594-5-2.351563-10.957031-.207031-13.308593 4.792969-2.351563 4.996094-.207031 10.953125 4.792969 13.304687 8.40625 3.957031 17.398437 5.960938 26.726562 5.960938 9.136719 0 17.957031-1.925781 26.21875-5.722657 5.015625-2.308593 7.214844-8.246093 4.910156-13.261718-2.308594-5.019532-8.246094-7.21875-13.265625-4.910156zm0 0"/><path d="m10 512h492c5.523438 0 10-4.476562 10-10v-20c0-13.816406-9.390625-25.472656-22.121094-28.941406 1.363282-3.425782 2.121094-7.15625 2.121094-11.058594v-66c0-27.570312-22.429688-50-50-50h-26v-10c0-16.542969-13.457031-30-30-30s-30 13.457031-30 30v10s-28.191406.046875-29.285156.117188c-2.15625-1.75-4.40625-3.386719-6.714844-4.929688v-191.1875c0-71.683594-58.316406-130-130-130s-130 58.316406-130 130v191.160156c-24.8125 16.625-40 44.785156-40 74.839844v57.71875c-11.640625 4.128906-20 15.246094-20 28.28125v20c0 5.523438 4.476562 10 10 10zm300-60c-5.515625 0-10-4.484375-10-10v-56h172v56c0 5.515625-4.484375 10-10 10zm-170-66v-57.503906c14.007812 11.277344 31.449219 17.503906 50 17.503906s35.992188-6.226562 50-17.503906v57.503906zm-40 0v-59.28125c3.304688-.472656 6.648438-.71875 10-.71875 3.371094 0 6.71875-.347656 10-1.019531v61.019531zm170-80c-16.125 0-30-12.96875-30-30v-11.816406c15.113281-10.6875 27.042969-26.304688 33.769531-44.183594h6.230469c7.28125 0 14.113281-1.964844 20-5.382812v96.535156c-9.589844-3.386719-19.738281-5.152344-30-5.152344zm-110-30v-1.128906c11.75 4.15625 24.609375 5.949218 38.03125 4.78125 7.589844-.664063 14.933594-2.304688 21.96875-4.898438v1.246094c0 12.238281 4.347656 23.691406 12.152344 32.679688-11.164063 11.085937-26.097656 17.320312-42.152344 17.320312s-30.988281-6.234375-42.152344-17.320312c7.804688-8.984376 12.152344-20.441407 12.152344-32.679688zm120-76h-1.050781c.695312-4.6875 1.050781-9.414062 1.050781-14.148438v-25.851562c11.027344 0 20 8.972656 20 20s-8.972656 20-20 20zm-20-14.148438c0 37.074219-26.9375 70.664063-63.707031 73.875-41.449219 3.601563-76.292969-28.929687-76.292969-69.726562v-50h10.09375c18.734375-.175781 36.289062-7.480469 49.425781-20.570312 4.082031-4.066407 7.59375-8.554688 10.503907-13.363282 12.265624 20.316406 34.5625 33.933594 59.976562 33.933594h10zm-159.4375 14.148438h-.5625c-11.027344 0-20-8.972656-20-20s8.972656-20 20-20v30c0 3.351562.195312 6.6875.5625 10zm-.5625 20h5.152344c6.453125 18.179688 18.761718 34.023438 34.847656 44.8125v11.1875c0 16.953125-13.78125 30-30 30-7.59375 0-15.160156.953125-22.496094 2.835938-2.535156.652343-5.035156 1.429687-7.503906 2.304687v-96.523437c5.886719 3.417968 12.71875 5.382812 20 5.382812zm160 104.984375c3.28125.667969 6.628906 1.015625 10 1.015625 11.40625 0 22.632812 2.789062 32.65625 8.078125-13.800781 8.964844-22.65625 24.464844-22.65625 41.921875v10h-20zm210.28125 41.015625h-168.585938c4.269532-12.195312 15.714844-20 28.304688-20h112c13.035156 0 24.152344 8.359375 28.28125 20zm-94.28125-50c0-5.515625 4.484375-10 10-10s10 4.484375 10 10v10h-20zm-186-296c60.652344 0 110 49.347656 110 110v15.382812c-5.886719-3.417968-12.71875-5.382812-20-5.382812v-10c0-5.523438-4.476562-10-10-10h-20c-27.570312 0-50-22.429688-50-50 0-5.523438-4.476562-10-10-10s-10 4.476562-10 10c0 27.773438-22.003906 49.738281-50 50h-20c-5.523438 0-10 4.476562-10 10v10c-7.28125 0-14.113281 1.964844-20 5.382812v-15.382812c0-60.652344 49.347656-110 110-110zm-110 312.746094v60.226562l-14.964844 22.445313c-3.292968 4.949219-5.035156 10.703125-5.035156 16.640625v19.941406h-20v-56c0-26.269531 15.035156-51.398438 40-63.253906zm-60 149.253906c0-5.515625 4.484375-10 10-10h120c5.523438 0 10-4.476562 10-10s-4.476562-10-10-10h-70v-19.941406c0-1.980469.582031-3.902344 1.679688-5.550782l13.671874-20.507812h184.648438v36c0 3.507812.609375 6.871094 1.71875 10h-51.71875c-5.523438 0-10 4.476562-10 10s4.476562 10 10 10h252c5.515625 0 10 4.484375 10 10v10h-472zm0 0"/></svg>