<svg height="512pt" viewBox="0 0 512 512.00016" width="512pt" xmlns="http://www.w3.org/2000/svg"><path d="m230 182c5.519531 0 10-4.480469 10-10s-4.480469-10-10-10-10 4.480469-10 10 4.480469 10 10 10zm0 0"/><path d="m190 452c-5.519531 0-10 4.480469-10 10s4.480469 10 10 10 10-4.480469 10-10-4.480469-10-10-10zm0 0"/><path d="m150 182c5.519531 0 10-4.480469 10-10s-4.480469-10-10-10-10 4.480469-10 10 4.480469 10 10 10zm0 0"/><path d="m163.269531 224.738281c8.40625 3.957031 17.402344 5.960938 26.730469 5.960938 9.132812 0 17.957031-1.925781 26.21875-5.722657 5.015625-2.308593 7.214844-8.246093 4.90625-13.261718-2.304688-5.019532-8.246094-7.21875-13.261719-4.910156-5.625 2.585937-11.632812 3.894531-17.863281 3.894531-6.363281 0-12.488281-1.363281-18.210938-4.058594-5-2.351563-10.953124-.207031-13.308593 4.792969-2.351563 4.996094-.207031 10.953125 4.789062 13.304687zm0 0"/><path d="m10 512h492c5.523438 0 10-4.476562 10-10v-20c0-13.816406-9.390625-25.472656-22.121094-28.941406 1.363282-3.425782 2.121094-7.15625 2.121094-11.058594v-66c0-27.570312-22.429688-50-50-50h-26v-10c0-16.542969-13.457031-30-30-30s-30 13.457031-30 30v10s-28.199219.046875-29.296875.117188c-16.007813-13-35.964844-20.117188-56.703125-20.117188-16.21875 0-30-13.058594-30-30v-9.816406c15.113281-10.6875 27.042969-26.304688 33.769531-44.183594h6.230469c22.054688 0 40-17.945312 40-40s-17.945312-40-40-40v-26.015625c18.464844-20.324219 23.023438-44.875 13.132812-71.253906-8.679687-23.152344-25.785156-40.007813-26.921874-41.457031-2.378907-2.621094-5.972657-3.785157-9.445313-3.0625-3.46875.722656-6.292969 3.230468-7.429687 6.585937-.984376 2.921875-2.261719 7.632813-3.609376 12.621094-.476562 1.765625-.957031 3.542969-1.429687 5.257812-1.183594 4.3125-5.140625 7.324219-9.625 7.324219h-64.671875c-18.96875 0-34.894531 13.273438-38.984375 31.015625-17.742187 4.089844-31.015625 20.015625-31.015625 38.984375v40c-22.054688 0-40 17.945312-40 40s17.945312 40 40 40h5.152344c6.453125 18.179688 18.761718 34.023438 34.847656 44.8125v9.1875c0 16.980469-13.8125 30-30 30-49.339844 0-90 39.875-90 90v57.71875c-11.640625 4.128906-20 15.246094-20 28.28125v20c0 5.523438 4.476562 10 10 10zm300-60c-5.515625 0-10-4.484375-10-10v-56h172v56c0 5.515625-4.484375 10-10 10zm160.28125-86h-168.585938c4.269532-12.195312 15.714844-20 28.304688-20h112c13.035156 0 24.152344 8.359375 28.28125 20zm-94.28125-50c0-5.515625 4.484375-10 10-10s10 4.484375 10 10v10h-20zm-73.355469 18.089844c-13.792969 8.960937-22.644531 24.457031-22.644531 41.910156v10h-20v-61.015625c3.28125.667969 6.628906 1.015625 10 1.015625 11.488281 0 22.660156 2.820312 32.644531 8.089844zm-162.644531 51.910156v-57.503906c14.007812 11.277344 31.449219 17.503906 50 17.503906s35.992188-6.226562 50-17.503906v57.503906zm58.03125-104.347656c7.597656-.664063 14.949219-2.308594 21.988281-4.90625.175781 11.957031 4.484375 23.132812 12.132813 31.933594-11.164063 11.085937-26.097656 17.320312-42.152344 17.320312s-30.988281-6.234375-42.152344-17.320312c7.621094-8.773438 11.929688-19.90625 12.128906-31.816407 12.492188 4.421875 25.414063 5.890625 38.054688 4.789063zm101.96875-99.652344c0 11.027344-8.972656 20-20 20h-1.050781c.695312-4.6875 1.050781-9.414062 1.050781-14.148438v-25.851562c11.027344 0 20 8.972656 20 20zm-180-80c0-11.027344 8.972656-20 20-20 5.523438 0 10-4.476562 10-10 0-11.027344 8.972656-20 20-20h64.671875c13.058594 0 24.636719-8.523438 28.5625-20.859375 13.726563 19.390625 24.070313 46.410156 2.453125 70.859375h-107.40625c-7.894531 0-15.625 3.203125-21.210938 8.789062l-17.070312 17.070313zm-40 80c0-11.027344 8.972656-20 20-20v30c0 3.351562.195312 6.6875.5625 10h-.5625c-11.027344 0-20-8.972656-20-20zm40 10v-35.855469l31.210938-31.210937c1.863281-1.863282 4.4375-2.933594 7.066406-2.933594h101.722656v65.851562c0 36.996094-26.902344 70.664063-63.707031 73.875-41.453125 3.597657-76.292969-28.929687-76.292969-69.726562zm0 132.980469v61.019531h-20v-59.28125c3.304688-.472656 6.648438-.71875 10-.71875 3.371094 0 6.71875-.347656 10-1.019531zm-40 7.753906v60.238281l-14.964844 22.445313c-4.738281 7.121093-5.035156 22.492187-5.035156 22.640625v13.941406h-20v-56c0-27.449219 15.929688-51.875 40-63.265625zm-60 149.265625c0-5.515625 4.484375-10 10-10h120c5.523438 0 10-4.476562 10-10s-4.476562-10-10-10h-70v-13.941406c0-3.414063 1.015625-9.882813 1.832031-11.78125l13.519531-20.277344h184.648438v36c0 3.507812.609375 6.871094 1.71875 10h-51.71875c-5.523438 0-10 4.476562-10 10s4.476562 10 10 10h252c5.515625 0 10 4.484375 10 10v10h-472zm0 0"/></svg>