<svg height="512pt" viewBox="0 0 512 512" width="512pt" xmlns="http://www.w3.org/2000/svg"><path d="m256 140c5.519531 0 10-4.480469 10-10s-4.480469-10-10-10-10 4.480469-10 10 4.480469 10 10 10zm0 0"/><path d="m43 390c-24.515625 0-43 19.367188-43 45.050781 0 28.671875 21.414062 41.136719 63.78125 74.78125 1.820312 1.445313 4.019531 2.167969 6.21875 2.167969s4.394531-.722656 6.21875-2.167969c40.898438-32.464843 63.78125-45.886719 63.78125-74.78125 0-25.683593-18.484375-45.050781-43-45.050781-6.183594 0-11.886719 1.945312-17 4.800781v-214.800781h146v188.207031l-12.761719 25.851563-29.226562 4.246094c-3.765625.546874-6.894531 3.183593-8.070313 6.804687-1.179687 3.621094-.199218 7.59375 2.527344 10.25l21.144531 20.621094-4.988281 29.101562c-.644531 3.75.898438 7.539063 3.976562 9.777344 3.078126 2.238281 7.160157 2.535156 10.53125.765625l26.144532-13.738281 26.140625 13.738281c3.390625 1.78125 7.46875 1.460938 10.53125-.765625 3.078125-2.234375 4.621093-6.027344 3.976562-9.777344l-4.992187-29.101562 21.148437-20.621094c2.726563-2.65625 3.707031-6.628906 2.527344-10.25-1.175781-3.621094-4.304687-6.257813-8.070313-6.804687l-29.226562-4.246094-11.3125-22.921875v-191.136719h80v113.007812c-22.796875 4.644532-40 24.84375-40 48.992188 0 27.570312 22.429688 50 50 50s50-22.429688 50-50c0-24.144531-17.203125-44.347656-40-48.992188v-113.007812h86v214.800781c-5.113281-2.855469-10.816406-4.800781-17-4.800781-24.515625 0-43 19.367188-43 45.050781 0 28.671875 21.414062 41.136719 63.78125 74.78125 1.820312 1.445313 4.019531 2.167969 6.21875 2.167969s4.394531-.722656 6.21875-2.167969c40.898438-32.464843 63.78125-45.886719 63.78125-74.78125 0-25.683593-18.484375-45.050781-43-45.050781-6.183594 0-11.886719 1.945312-17 4.800781v-214.800781h10c16.542969 0 30-13.457031 30-30v-10h10c5.523438 0 10-4.476562 10-10 0-27.570312-22.429688-50-50-50h-166.027344c6.292969-8.363281 10.027344-18.753906 10.027344-30 0-27.570312-22.429688-50-50-50s-50 22.429688-50 50c0 11.246094 3.734375 21.636719 10.027344 30h-166.027344c-27.570312 0-50 22.429688-50 50 0 5.523438 4.476562 10 10 10h10v10c0 16.542969 13.457031 30 30 30h10v214.800781c-5.113281-2.855469-10.816406-4.800781-17-4.800781zm220.613281 25.183594-10.40625 10.148437c-2.355469 2.296875-3.429687 5.605469-2.875 8.847657l2.457031 14.3125-12.859374-6.753907c-2.910157-1.53125-6.390626-1.53125-9.300782 0l-12.871094 6.757813 2.457032-14.316406c.558594-3.242188-.519532-6.550782-2.875-8.847657l-10.40625-10.148437 14.382812-2.085938c3.253906-.472656 6.070313-2.519531 7.527344-5.46875l6.429688-13.027344 6.425781 13.023438c1.457031 2.953125 4.273437 5 7.53125 5.472656zm102.386719-73.183594c0 16.542969-13.457031 30-30 30s-30-13.457031-30-30 13.457031-30 30-30 30 13.457031 30 30zm126 93.050781c0 16.636719-14.316406 26.207031-49.996094 54.207031-37.898437-29.792968-50.003906-37.808593-50.003906-54.207031 0-14.75 9.457031-25.050781 23-25.050781 5.101562 0 11.746094 4.273438 19.75 12.699219.027344.027343.0625.054687.089844.082031 1.84375 1.894531 4.394531 3.027344 7.160156 3.027344 2.761719 0 5.3125-1.128906 7.160156-3.027344.03125-.027344.0625-.054688.089844-.082031 8.003906-8.425781 14.648438-12.699219 19.75-12.699219 13.542969 0 23 10.300781 23 25.050781zm-266-385.050781c0-16.542969 13.457031-30 30-30s30 13.457031 30 30-13.457031 30-30 30-30-13.457031-30-30zm-186 100v-10h176c5.523438 0 10-4.476562 10-10s-4.476562-10-10-10h-194.285156c4.125-11.640625 15.246094-20 28.285156-20h412c13.039062 0 24.160156 8.359375 28.285156 20h-194.285156c-5.523438 0-10 4.476562-10 10s4.476562 10 10 10h176v10c0 5.515625-4.484375 10-10 10h-412c-5.515625 0-10-4.484375-10-10zm80 285.050781c0 16.636719-14.316406 26.207031-49.996094 54.207031-37.898437-29.792968-50.003906-37.808593-50.003906-54.207031 0-14.75 9.457031-25.050781 23-25.050781 6.972656 0 15.015625 7.824219 19.839844 12.78125 1.839844 1.890625 4.390625 3.027344 7.160156 3.027344 2.804688 0 5.40625-1.175782 7.25-3.109375 8.003906-8.425781 14.648438-12.699219 19.75-12.699219 13.542969 0 23 10.300781 23 25.050781zm0 0"/></svg>