<svg height="512pt" viewBox="0 0 512 512" width="512pt" xmlns="http://www.w3.org/2000/svg"><path d="m509.996094 109.992188s-74.117188-98.644532-74.179688-98.71875c-5.714844-7.164063-14.253906-11.273438-23.425781-11.273438h-168.390625c-5.523438 0-10 4.476562-10 10s4.476562 10 10 10h168.390625c3.011719 0 5.820313 1.328125 7.71875 3.652344l61.867187 82.347656h-135.691406l-42.023437-61.632812c-1.863281-2.730469-4.953125-4.367188-8.261719-4.367188h-80c-3.308594 0-6.398438 1.636719-8.261719 4.367188l-42.023437 61.632812h-135.691406l61.871093-82.347656c1.898438-2.324219 4.703125-3.652344 7.714844-3.652344h64.390625c5.523438 0 10-4.476562 10-10s-4.476562-10-10-10h-64.390625c-9.171875 0-17.710937 4.109375-23.425781 11.273438-.0625.074218-74.179688 98.71875-74.179688 98.71875-1.242187 1.65625-2.003906 3.855468-2.003906 6.007812v40c0 5.523438 4.476562 10 10 10h10v287.71875c-11.640625 4.128906-20 15.246094-20 28.28125v20c0 5.523438 4.476562 10 10 10h492c5.523438 0 10-4.476562 10-10v-20c0-13.035156-8.359375-24.152344-20-28.28125v-287.71875h10c5.523438 0 10-4.476562 10-10v-40c0-2.167969-.761719-4.351562-2.003906-6.007812zm-343.996094 56.007812v286h-126v-286zm160 0v120h-140v-120zm-20 286v-76c0-5.523438-4.476562-10-10-10h-80c-5.523438 0-10 4.476562-10 10v76h-20v-106h140v106zm-80 0v-66h60v66zm100-126h-140v-20h140zm166 166h-472v-10c0-5.515625 4.484375-10 10-10h452c5.515625 0 10 4.484375 10 10zm-20-40h-126v-286h126zm20-306h-472v-20h151c3.308594 0 6.398438-1.636719 8.261719-4.367188l42.023437-61.632812h69.429688l42.023437 61.632812c1.863281 2.730469 4.953125 4.367188 8.261719 4.367188h151zm0 0"/><path d="m216 266h80c5.523438 0 10-4.476562 10-10v-60c0-5.523438-4.476562-10-10-10h-80c-5.523438 0-10 4.476562-10 10v60c0 5.523438 4.476562 10 10 10zm10-60h60v40h-60zm0 0"/><path d="m379 266h60c5.523438 0 10-4.476562 10-10v-60c0-5.523438-4.476562-10-10-10h-60c-5.523438 0-10 4.476562-10 10v60c0 5.523438 4.476562 10 10 10zm10-60h40v40h-40zm0 0"/><path d="m73 266h60c5.523438 0 10-4.476562 10-10v-60c0-5.523438-4.476562-10-10-10h-60c-5.523438 0-10 4.476562-10 10v60c0 5.523438 4.476562 10 10 10zm10-60h40v40h-40zm0 0"/><path d="m379 406h60c5.523438 0 10-4.476562 10-10v-60c0-5.523438-4.476562-10-10-10h-60c-5.523438 0-10 4.476562-10 10v60c0 5.523438 4.476562 10 10 10zm10-60h40v40h-40zm0 0"/><path d="m73 406h60c5.523438 0 10-4.476562 10-10v-60c0-5.523438-4.476562-10-10-10h-60c-5.523438 0-10 4.476562-10 10v60c0 5.523438 4.476562 10 10 10zm10-60h40v40h-40zm0 0"/><path d="m194 10c0 5.519531 4.480469 10 10 10s10-4.480469 10-10-4.480469-10-10-10-10 4.480469-10 10zm0 0"/></svg>