<svg height="512pt" viewBox="0 0 512 512" width="512pt" xmlns="http://www.w3.org/2000/svg"><path d="m416 409c-5.519531 0-10 4.480469-10 10s4.480469 10 10 10 10-4.480469 10-10-4.480469-10-10-10zm0 0"/><path d="m376 226c5.519531 0 10-4.480469 10-10s-4.480469-10-10-10-10 4.480469-10 10 4.480469 10 10 10zm0 0"/><path d="m316 409c-5.519531 0-10 4.480469-10 10s4.480469 10 10 10 10-4.480469 10-10-4.480469-10-10-10zm0 0"/><path d="m256 326c5.519531 0 10-4.480469 10-10s-4.480469-10-10-10-10 4.480469-10 10 4.480469 10 10 10zm0 0"/><path d="m256 226c5.519531 0 10-4.480469 10-10s-4.480469-10-10-10-10 4.480469-10 10 4.480469 10 10 10zm0 0"/><path d="m196 409c-5.519531 0-10 4.480469-10 10s4.480469 10 10 10 10-4.480469 10-10-4.480469-10-10-10zm0 0"/><path d="m136 226c5.519531 0 10-4.480469 10-10s-4.480469-10-10-10-10 4.480469-10 10 4.480469 10 10 10zm0 0"/><path d="m96 409c-5.519531 0-10 4.480469-10 10s4.480469 10 10 10 10-4.480469 10-10-4.480469-10-10-10zm0 0"/><path d="m50 512h412c27.570312 0 50-22.429688 50-50 0-5.523438-4.476562-10-10-10h-36c0-13.941406 0-102.085938 0-116 0-16.542969-13.457031-30-30-30h-10c0-11.519531 0-99.023438 0-110 0-16.542969-13.457031-30-30-30h-10v-76c0-7.679688-2.902344-14.6875-7.664062-20 4.761718-5.3125 7.664062-12.320312 7.664062-20 0-12.789062-15.226562-36.207031-21.773438-45.683594-1.867187-2.703125-4.941406-4.316406-8.226562-4.316406s-6.359375 1.613281-8.226562 4.316406c-6.546876 9.476563-21.773438 32.894532-21.773438 45.683594 0 7.679688 2.902344 14.6875 7.664062 20-4.761718 5.3125-7.664062 12.320312-7.664062 20v76h-40v-76c0-7.679688-2.902344-14.6875-7.664062-20 4.761718-5.3125 7.664062-12.320312 7.664062-20 0-12.789062-15.226562-36.207031-21.773438-45.683594-1.867187-2.703125-4.941406-4.316406-8.226562-4.316406s-6.359375 1.613281-8.226562 4.316406c-6.546876 9.476563-21.773438 32.894532-21.773438 45.683594 0 7.679688 2.902344 14.6875 7.664062 20-4.761718 5.3125-7.664062 12.320312-7.664062 20v76h-40v-76c0-7.679688-2.902344-14.6875-7.664062-20 4.761718-5.3125 7.664062-12.320312 7.664062-20 0-12.789062-15.226562-36.207031-21.773438-45.683594-1.867187-2.703125-4.941406-4.316406-8.226562-4.316406s-6.359375 1.613281-8.226562 4.316406c-6.546876 9.476563-21.773438 32.894532-21.773438 45.683594 0 7.679688 2.902344 14.6875 7.664062 20-4.761718 5.3125-7.664062 12.320312-7.664062 20v76h-10c-16.542969 0-30 13.457031-30 30v110h-10c-16.542969 0-30 13.457031-30 30v116h-36c-5.523438 0-10 4.476562-10 10 0 27.570312 22.429688 50 50 50zm306-483.464844c5.757812 9.703125 9.914062 18.410156 10 21.472656-.003906 5.511719-4.488281 9.992188-10 9.992188-5.515625 0-10-4.484375-10-9.988281.082031-3.058594 4.238281-11.769531 10-21.476563zm-10 61.464844c0-5.515625 4.484375-10 10-10s10 4.484375 10 10v76h-20zm-90-61.464844c5.757812 9.703125 9.914062 18.410156 10 21.472656-.003906 5.511719-4.488281 9.992188-10 9.992188-5.515625 0-10-4.484375-10-9.988281.082031-3.058594 4.238281-11.769531 10-21.476563zm-10 61.464844c0-5.515625 4.484375-10 10-10s10 4.484375 10 10v76h-20zm-90-61.464844c5.757812 9.703125 9.914062 18.410156 10 21.472656-.003906 5.511719-4.488281 9.992188-10 9.992188-5.515625 0-10-4.484375-10-9.988281.082031-3.058594 4.238281-11.769531 10-21.476563zm-10 61.464844c0-5.515625 4.484375-10 10-10s10 4.484375 10 10v76h-20zm-30 96h280c5.515625 0 10 4.484375 10 10v36.921875c-2.152344 1.515625-4.242188 3.175781-6.238281 5-14.347657 13.082031-32.175781 13.082031-46.523438 0-21.972656-20.039063-51.5-20.039063-73.476562 0-14.347657 13.082031-32.175781 13.082031-46.523438 0-21.972656-20.039063-51.5-20.039063-73.476562 0-14.347657 13.082031-32.175781 13.082031-46.53125-.007813-2.316407-2.109374-4.738281-4.007812-7.230469-5.691406v-36.222656c0-5.515625 4.484375-10 10-10zm-40 140h140c5.523438 0 10-4.476562 10-10s-4.476562-10-10-10h-110v-48.289062c21.101562 14.855468 47.28125 13.1875 67.238281-5.011719 14.347657-13.085938 32.175781-13.085938 46.523438 0 21.972656 20.039062 51.5 20.039062 73.476562 0 14.347657-13.085938 32.175781-13.085938 46.523438 0 19.640625 17.910156 45.308593 19.796875 66.238281 5.6875v47.613281h-110c-5.523438 0-10 4.476562-10 10s4.476562 10 10 10h140c5.515625 0 10 4.484375 10 10v17.769531c-16.078125-3.171875-32.589844 1.699219-46.238281 14.152344-14.347657 13.085937-32.175781 13.085937-46.523438 0-21.972656-20.039063-51.5-20.039063-73.476562 0-14.347657 13.085937-32.175781 13.085937-46.523438 0-21.972656-20.039063-51.5-20.039063-73.476562 0-14.347657 13.085937-32.175781 13.082031-46.523438 0-13.765625-12.554687-30.886719-17.363281-47.238281-13.886719v-18.035156c0-5.515625 4.484375-10 10-10zm-10 48.773438c11.445312-4.1875 23.492188-1.441407 33.761719 7.925781 21.976562 20.039062 51.503906 20.039062 73.476562 0 14.347657-13.085938 32.175781-13.085938 46.523438 0 21.972656 20.039062 51.5 20.039062 73.476562 0 14.347657-13.085938 32.175781-13.085938 46.523438 0 21.976562 20.039062 51.503906 20.039062 73.480469-.003907 9.933593-9.058593 21.609374-11.917968 32.757812-8.253906v77.558594h-380zm424.285156 97.226562c-4.125 11.640625-15.25 20-28.285156 20h-412c-13.035156 0-24.160156-8.359375-28.285156-20zm0 0"/></svg>