<svg height="512pt" viewBox="0 -96 512 512" width="512pt" xmlns="http://www.w3.org/2000/svg"><path d="m8.789062 162.933594 148.28125 148.277344c5.433594 5.433593 13.078126 8.789062 21.210938 8.789062h155.4375c8.007812 0 15.65625-3.234375 21.210938-8.789062l148.28125-148.277344c5.421874-5.421875 8.789062-13.03125 8.789062-21.214844v-111.71875c0-16.542969-13.457031-30-30-30h-270c-5.523438 0-10 4.476562-10 10s4.476562 10 10 10h270c5.515625 0 10 4.484375 10 10v10h-100c-22.054688 0-40 17.945312-40 40s17.945312 40 40 40h100v21.429688c-6.597656-.941407-13.292969-1.429688-20-1.429688-77.195312 0-140 62.804688-140 140 0 6.707031.488281 13.402344 1.429688 20h-154.859376c.941407-6.597656 1.429688-13.292969 1.429688-20 0-77.195312-62.804688-140-140-140-6.707031 0-13.402344.488281-20 1.429688v-21.429688h100c22.054688 0 40-17.945312 40-40s-17.945312-40-40-40h-100v-10c0-5.515625 4.484375-10 10-10h102c5.523438 0 10-4.476562 10-10s-4.476562-10-10-10h-102c-16.542969 0-30 13.457031-30 30v111.71875c0 8.179688 3.363281 15.789062 8.789062 21.214844zm363.210938-82.933594c0-11.027344 8.972656-20 20-20h20v40h-20c-11.027344 0-20-8.972656-20-20zm60 20v-40h60v40zm40 59.980469c1.90625 0 3.816406.050781 5.71875.140625l-125.578125 125.597656c-.089844-1.90625-.140625-3.8125-.140625-5.71875 0-66.167969 53.832031-120.019531 120-120.019531zm-312 120.019531c0 1.90625-.050781 3.816406-.140625 5.71875l-125.578125-125.578125c1.902344-.089844 3.8125-.140625 5.71875-.140625 66.167969 0 120 53.832031 120 120zm-20-200c0 11.027344-8.972656 20-20 20h-20v-40h20c11.027344 0 20 8.972656 20 20zm-60-20v40h-60v-40zm0 0"/><path d="m286 70c0-16.542969-13.457031-30-30-30s-30 13.457031-30 30 13.457031 30 30 30 30-13.457031 30-30zm-40 0c0-5.515625 4.484375-10 10-10s10 4.484375 10 10-4.484375 10-10 10-10-4.484375-10-10zm0 0"/><path d="m162 10c0 5.519531 4.480469 10 10 10s10-4.480469 10-10-4.480469-10-10-10-10 4.480469-10 10zm0 0"/></svg>