<svg height="512pt" viewBox="0 -66 512 512" width="512pt" xmlns="http://www.w3.org/2000/svg"><path d="m187.457031 66.707031c-5.339843 1.40625-8.53125 6.871094-7.128906 12.214844 1.402344 5.332031 6.863281 8.535156 12.214844 7.128906 14.414062-3.789062 33.277343-6.050781 50.457031-6.050781 17.265625 0 36.136719 2.226562 50.484375 5.957031 5.339844 1.390625 10.804687-1.8125 12.191406-7.160156 1.390625-5.34375-1.8125-10.804687-7.160156-12.195313-15.894531-4.132812-36.648437-6.601562-55.515625-6.601562-18.796875 0-39.5625 2.507812-55.542969 6.707031zm0 0"/><path d="m100 150c0 5.523438 4.476562 10 10 10s10-4.476562 10-10c0-5.515625 4.484375-10 10-10s10 4.484375 10 10c0 5.523438 4.476562 10 10 10s10-4.476562 10-10c0-16.542969-13.457031-30-30-30s-30 13.457031-30 30zm0 0"/><path d="m502 160h-46c-3.980469 0-7.78125.785156-11.261719 2.199219-9.136719-64.4375-65.355469-111.550781-127.710937-131.042969-5.269532-1.644531-10.878906 1.292969-12.527344 6.5625-1.644531 5.273438 1.289062 10.882812 6.5625 12.527344 68.75 21.492187 114.9375 73.636718 114.9375 129.753906 0 44.796875-28 87.265625-74.894531 113.601562-3.152344 1.769532-5.105469 5.101563-5.105469 8.71875v57.679688h-40v-35.25c0-3.019531-1.363281-5.878906-3.714844-7.777344-2.351562-1.898437-5.433594-2.632812-8.382812-2-14.664063 3.148438-33.691406 5.027344-50.902344 5.027344-20.320312 0-40.117188-2.707031-50.898438-5.027344-2.953124-.636718-6.035156.097656-8.386718 2-2.347656 1.894532-3.714844 4.757813-3.714844 7.777344v35.25h-40v-57.679688c0-3.617187-1.953125-6.949218-5.105469-8.71875-24.925781-13.996093-44.550781-32.335937-57.527343-53.601562h12.632812c5.523438 0 10-4.476562 10-10s-4.476562-10-10-10c-6.824219 0-52.503906 0-60 0-5.515625 0-10-4.484375-10-10v-40c0-5.515625 4.484375-10 10-10h23.800781c4.5625 0 8.546875-3.089844 9.683594-7.507812 5.339844-20.761719 16.972656-40.660157 33.632813-57.550782 1.847656-1.871094 2.882812-4.394531 2.882812-7.019531v-66.902344c16.761719 3.445313 30.984375 15.382813 36.996094 31.851563 1.988281 5.441406 8.183594 8.070312 13.480468 5.695312 24.40625-10.925781 54.550782-17.476562 84.886719-18.441406 5.519531-.179688 9.851563-4.796875 9.675781-10.3125-.175781-5.523438-4.808593-9.835938-10.3125-9.679688-29.207031.933594-58.371093 6.691407-83.253906 16.355469-12.136718-22.175781-35.695312-36.488281-61.472656-36.488281-5.523438 0-10 4.476562-10 10v73.890625c-15.675781 16.703125-27.203125 35.90625-33.710938 56.109375h-16.289062c-16.542969 0-30 13.457031-30 30v40c0 16.542969 13.457031 30 30 30h24.496094c13.660156 27.125 36.132812 50.484375 65.503906 68.078125v61.921875c0 5.523438 4.476562 10 10 10h60c5.523438 0 10-4.476562 10-10v-33.304688c10.148438 1.550782 25.5 3.304688 43 3.304688 14.125 0 29.445312-1.1875 43-3.269531v33.269531c0 5.523438 4.476562 10 10 10h60c5.523438 0 10-4.476562 10-10v-61.925781c38.058594-22.839844 64.371094-55.664063 74.882812-92.175781 4.441407 2.601562 9.605469 4.101562 15.117188 4.101562 16.542969 0 30-13.457031 30-30 0-3.507812-.609375-6.871094-1.71875-10h17.71875c5.523438 0 10-4.476562 10-10s-4.476562-10-10-10zm-36 30c0 5.515625-4.484375 10-10 10s-10-4.484375-10-10 4.484375-10 10-10 10 4.484375 10 10zm0 0"/><path d="m285 32c0-5.519531-4.480469-10-10-10s-10 4.480469-10 10 4.480469 10 10 10 10-4.480469 10-10zm0 0"/></svg>