<svg height="512pt" viewBox="0 0 512.00087 512" width="512pt" xmlns="http://www.w3.org/2000/svg"><path d="m238.992188 470.265625c29.320312-29.320313 43.695312-69.117187 40.691406-109.191406l20.117187 20.113281c11.71875 11.71875 30.691407 11.726562 42.414063 0 11.722656-11.722656 11.726562-30.703125 0-42.425781l-8.28125-8.285157c2.996094-1.425781 5.804687-3.375 8.28125-5.851562 11.691406-11.691406 11.691406-30.722656 0-42.425781l-16.144532-16.148438c14.1875-5.304687 29.699219-6.621093 44.664063-7.105469 29.132813-.941406 71.523437-5.855468 103.175781-37.507812 57.980469-57.980469 49.019532-155.113281-21.75-201.46875-16.605468-10.875-36.035156-17.757812-56.191406-19.9101562-5.507812-.5898438-10.417969 3.3906252-11.003906 8.8789062-.585938 5.492188 3.390625 10.417969 8.878906 11.003906 17.019531 1.816406 33.394531 7.609375 47.359375 16.753906 60.234375 39.457032 67.492187 121.675782 18.5625 170.601563-20.273437 20.277344-48.769531 30.339844-89.675781 31.664063-18.65625.601562-39.933594 2.5625-59.25 11.863281l-50.28125-50.285157c8.992187-18.613281 11.304687-38.4375 11.785156-61.886718.847656-41.59375 15.722656-79.730469 51.191406-102.429688 4.652344-2.976562 6.007813-9.160156 3.03125-13.8125-2.976562-4.648437-9.160156-6.007812-13.808594-3.03125-41.203124 26.378906-59.410156 69.964844-60.410156 118.867188-.363281 17.890625-1.851562 33.230468-7.023437 47.0625l-16.226563-16.226563c-11.699218-11.6875-30.730468-11.6875-42.421875.003907-2.480469 2.476562-4.425781 5.285156-5.855469 8.28125l-8.28125-8.28125c-11.722656-11.722657-30.703124-11.726563-42.425781 0-11.722656 11.71875-11.726562 30.691406 0 42.417968l20.113281 20.113282c-40.074218-3-79.871093 11.375-109.191406 40.695312-54.707031 54.695312-54.714844 143.25-.003906 197.953125 54.699219 54.707031 143.253906 54.714844 197.960938 0zm-42.417969-42.414063c-31.1875 31.1875-81.9375 31.175782-113.125 0-31.183594-31.195312-31.183594-81.941406 0-113.125 19.859375-19.859374 48.363281-27.722656 75.46875-21.144531 1.492187 3.652344 3.695312 6.984375 6.550781 9.835938l42.414062 42.414062c2.855469 2.855469 6.191407 5.0625 9.835938 6.550781 6.578125 27.105469-1.289062 55.609376-21.144531 75.46875zm25.449219-96.160156-42.417969-42.414062c-3.925781-3.925782-3.867188-10.277344 0-14.144532l7.070312-7.070312 56.558594 56.5625-7.066406 7.066406c-3.835938 3.839844-10.191407 3.957032-14.144531 0zm-21.210938-148.464844c3.894531-3.898437 10.246094-3.898437 14.148438 0l113.109374 113.109376c3.898438 3.902343 3.902344 10.25.003907 14.148437-3.894531 3.898437-10.238281 3.898437-14.132813 0l-113.128906-113.125c-3.894531-3.898437-3.894531-10.238281 0-14.132813zm-56.558594-.003906c3.90625-3.90625 10.238282-3.90625 14.144532.003906l169.675781 169.675782c3.90625 3.90625 3.910156 10.234375 0 14.144531-3.90625 3.90625-10.226563 3.90625-14.132813 0-7.476562-7.472656-162.160156-162.15625-169.691406-169.6875-3.902344-3.90625-3.90625-10.226563.003906-14.136719zm-89.082031 103.226563c30.589844-30.585938 74.46875-42.1875 115.902344-31.066407l-5.609375 5.609376c-3.402344 3.402343-5.882813 7.535156-7.324219 11.992187-32.191406-5.945313-65.34375 4.113281-88.832031 27.601563-38.980469 38.980468-38.980469 102.414062.003906 141.40625 38.980469 38.96875 102.414062 38.984374 141.402344 0 23.488281-23.492188 33.550781-56.652344 27.597656-88.839844 4.464844-1.441406 8.597656-3.917969 11.996094-7.320313l5.609375-5.605469c11.117187 41.433594-.484375 85.3125-31.070313 115.902344-46.882812 46.890625-122.785156 46.894532-169.675781 0-46.890625-46.886718-46.894531-122.789062 0-169.679687zm0 0"/><path d="m347.929688 5.242188c-3.898438 3.910156-3.898438 10.238281 0 14.148437 3.910156 3.898437 10.238281 3.898437 14.136718 0 3.910156-3.910156 3.910156-10.238281 0-14.148437-3.898437-3.902344-10.226562-3.902344-14.136718 0zm0 0"/></svg>