<svg height="512pt" viewBox="-56 0 512 512" width="512pt" xmlns="http://www.w3.org/2000/svg"><path d="m0 482c0 16.542969 13.457031 30 30 30h320c27.570312 0 50-22.429688 50-50v-412c0-16.542969-13.457031-30-30-30h-11.714844c-4.125-11.640625-15.246094-20-28.285156-20h-300c-16.542969 0-30 13.457031-30 30v156.332031c0 5.523438 4.476562 10 10 10s10-4.476562 10-10v-156.332031c0-5.515625 4.484375-10 10-10h300c5.515625 0 10 4.484375 10 10v412c0 5.515625-4.484375 10-10 10h-300c-3.507812 0-6.871094.609375-10 1.71875v-167.386719c0-5.519531-4.476562-10-10-10s-10 4.480469-10 10zm30-10h300c16.542969 0 30-13.457031 30-30v-402h10c5.515625 0 10 4.484375 10 10v412c0 16.542969-13.457031 30-30 30h-320c-5.515625 0-10-4.484375-10-10s4.484375-10 10-10zm0 0"/><path d="m289.398438 173.578125c0-26.679687-19.597657-47.578125-44.617188-47.578125-16.820312 0-27.792969 9.015625-34.605469 18.191406-8.144531-11.253906-20.929687-18.191406-35.394531-18.191406-16.824219 0-27.796875 9.019531-34.609375 18.195312-6.816406-9.175781-17.792969-18.195312-34.621094-18.195312-25.015625 0-44.609375 20.898438-44.609375 47.578125 0 33.402344 31.566406 54.351563 72.679688 89.980469 1.878906 1.628906 4.214844 2.441406 6.550781 2.441406 2.332031 0 4.667969-.816406 6.550781-2.445312 10.535156-9.136719 19.003906-16.113282 28.453125-24.195313 9.183594 7.863281 18.007813 15.15625 28.445313 24.199219 1.882812 1.628906 4.214844 2.441406 6.550781 2.441406s4.667969-.8125 6.546875-2.441406c41.105469-35.621094 72.679688-56.589844 72.679688-89.980469zm-149.230469 69.234375c-36.027344-30.761719-59.226563-47.511719-59.226563-69.230469 0-15.726562 10.578125-27.582031 24.609375-27.582031 18.257813 0 24.726563 21.789062 24.980469 22.671875 1.203125 4.332031 5.144531 7.328125 9.640625 7.328125 4.492187 0 8.433594-2.996094 9.636719-7.328125.0625-.230469 6.492187-22.671875 24.972656-22.671875 15 0 24.621094 12.964844 24.621094 27.578125-.003906 22-24.167969 39.285156-59.234375 69.234375zm70.003906 0c-7.507813-6.410156-13.324219-11.257812-19.882813-16.84375 16.941407-15.832031 30.496094-32.769531 28.984376-55.875.199218-.445312.382812-.898438.519531-1.378906.265625-.929688 6.738281-22.714844 24.984375-22.714844 14.039062 0 24.621094 11.855469 24.621094 27.578125 0 21.792969-23.371094 38.617187-59.226563 69.234375zm0 0"/><path d="m130 306c-5.523438 0-10 4.476562-10 10s4.476562 10 10 10h120c5.523438 0 10-4.476562 10-10s-4.476562-10-10-10zm0 0"/><path d="m10 246.332031c5.519531 0 10-4.480469 10-10s-4.480469-10-10-10-10 4.480469-10 10 4.480469 10 10 10zm0 0"/></svg>