<svg height="512pt" viewBox="0 -76 512 512" width="512pt" xmlns="http://www.w3.org/2000/svg"><path d="m502 40h-10v-30c0-5.523438-4.476562-10-10-10h-60c-5.523438 0-10 4.476562-10 10v30h-66v-30c0-5.523438-4.476562-10-10-10h-60c-5.523438 0-10 4.476562-10 10v30h-10c-5.523438 0-10 4.476562-10 10v90h-20v-30c0-5.523438-4.476562-10-10-10h-60c-5.523438 0-10 4.476562-10 10v30h-46v-30c0-5.523438-4.476562-10-10-10h-60c-5.523438 0-10 4.476562-10 10v30h-10c-5.523438 0-10 4.476562-10 10v200c0 5.523438 4.476562 10 10 10h492c5.523438 0 10-4.476562 10-10 0-33.792969 0-270.613281 0-300 0-5.523438-4.476562-10-10-10zm-236 120h226v80h-226zm166-140h40v20h-40zm-146 0h40v20h-40zm206 40v80h-226v-80zm-326 60h40v20h-40zm-126 0h40v20h-40zm-20 140h46c5.523438 0 10-4.476562 10-10s-4.476562-10-10-10h-46v-80h226v80h-100c-5.523438 0-10 4.476562-10 10s4.476562 10 10 10h100v80h-226zm472 80h-226v-80h226zm0 0"/><path d="m106 240c-5.519531 0-10 4.480469-10 10s4.480469 10 10 10 10-4.480469 10-10-4.480469-10-10-10zm0 0"/></svg>