<svg height="512pt" viewBox="0 -106 512 512" width="512pt" xmlns="http://www.w3.org/2000/svg"><path d="m256 60c5.519531 0 10-4.480469 10-10s-4.480469-10-10-10-10 4.480469-10 10 4.480469 10 10 10zm0 0"/><path d="m482 0h-452c-16.542969 0-30 13.457031-30 30v240c0 16.542969 13.457031 30 30 30h452c16.542969 0 30-13.457031 30-30v-240c0-16.542969-13.457031-30-30-30zm10 30v50c-33.085938 0-60-26.914062-60-60h50c5.515625 0 10 4.484375 10 10zm-472 0c0-5.515625 4.484375-10.011719 10-10.011719h50c0 33.085938-26.914062 60.011719-60 60.011719zm0 240v-50c33.085938 0 60 26.914062 60 60h-50c-5.515625 0-10-4.484375-10-10zm80 10c0-44.113281-35.886719-80-80-80v-100c44.113281 0 80-35.886719 80-80h312c0 44.113281 35.886719 80 80 80v100c-44.113281 0-80 35.886719-80 80zm392-10c0 5.515625-4.484375 10-10 10h-50c0-33.085938 26.914062-60 60-60zm0 0"/><path d="m226 130c0 16.542969 13.457031 30 30 30 5.515625 0 10 4.484375 10 10s-4.484375 10-10 10c-4.273438 0-8.886719-2.6875-12.984375-7.5625-3.554687-4.230469-9.863281-4.773438-14.089844-1.222656-4.226562 3.554687-4.773437 9.863281-1.21875 14.089844 5.34375 6.359374 11.632813 10.792968 18.292969 13.023437v11.671875c0 5.523438 4.476562 10 10 10s10-4.476562 10-10v-11.71875c11.640625-4.128906 20-15.246094 20-28.28125 0-16.542969-13.457031-30-30-30-5.515625 0-10-4.484375-10-10s4.484375-10 10-10c3.542969 0 7.28125 1.808594 10.816406 5.226562 3.96875 3.839844 10.296875 3.738282 14.140625-.230468 3.839844-3.96875 3.734375-10.300782-.234375-14.140625-5.074218-4.914063-10.152344-7.691407-14.722656-9.207031v-11.648438c0-5.523438-4.476562-10-10-10s-10 4.476562-10 10v11.71875c-11.640625 4.128906-20 15.246094-20 28.28125zm0 0"/><path d="m299.121094 48.78125c-5.082032-2.167969-10.957032.195312-13.121094 5.277344-2.164062 5.082031.199219 10.953125 5.277344 13.121094 33.242187 14.171874 54.722656 46.679687 54.722656 82.820312 0 49.625-40.375 90-90 90s-90-40.375-90-90c0-36.140625 21.480469-68.648438 54.722656-82.820312 5.078125-2.164063 7.441406-8.039063 5.277344-13.121094-2.164062-5.078125-8.042969-7.441406-13.121094-5.277344-40.628906 17.320312-66.878906 57.046875-66.878906 101.21875 0 60.652344 49.347656 110 110 110s110-49.347656 110-110c0-44.171875-26.25-83.898438-66.878906-101.21875zm0 0"/><path d="m452 150c0-5.523438-4.476562-10-10-10h-46c-5.523438 0-10 4.476562-10 10s4.476562 10 10 10h46c5.523438 0 10-4.476562 10-10zm0 0"/><path d="m116 140h-46c-5.523438 0-10 4.476562-10 10s4.476562 10 10 10h46c5.523438 0 10-4.476562 10-10s-4.476562-10-10-10zm0 0"/></svg>