<svg height="512pt" viewBox="-16 0 512 512" width="512pt" xmlns="http://www.w3.org/2000/svg"><path d="m310 362c5.519531 0 10-4.480469 10-10s-4.480469-10-10-10c-5.449219 0-10 4.425781-10 10 0 5.542969 4.503906 10 10 10zm0 0"/><path d="m320 512c88.226562 0 160-71.773438 160-160 0-68.285156-43.117188-128.40625-106.460938-150.824219l34.652344-49.4375c2.050782-2.921875 2.457032-6.941406.660156-10.378906-.011718-.027344-.023437-.054687-.035156-.082031l-30-56c-1.742187-3.25-5.128906-5.277344-8.816406-5.277344h-100c-3.6875 0-7.074219 2.027344-8.8125 5.277344l-30 56c-.015625.027344-.027344.058594-.039062.082031-1.679688 3.21875-1.46875 7 .40625 9.96875.085937.136719.164062.277344.257812.410156l34.652344 49.441407c-9.175782 3.253906-18.03125 7.339843-26.476563 12.230468-24.253906-14.019531-51.773437-21.410156-79.988281-21.410156-88.226562 0-160 71.773438-160 160 0 86.707031 69.347656 160 160 160 28.238281 0 55.757812-7.390625 80-21.417969 24.257812 14.027344 51.78125 21.417969 80 21.417969zm140-160c0 77.195312-62.804688 140-140 140-78.175781 0-140-63.652344-140-140 0-31.511719 10.59375-61.949219 29.972656-86.5625 5.800782 3.355469 11.25 7.265625 16.285156 11.734375-16.992187 21.226563-26.257812 47.441406-26.257812 74.828125 0 66.15625 53.8125 120 120 120 66.167969 0 120-53.832031 120-120s-53.832031-120-120-120c-15.621094 0-30.730469 2.949219-45.019531 8.769531-5.089844-5.257812-10.515625-10.164062-16.257813-14.675781 30.976563-15.109375 65.441406-17.597656 96.238282-9.699219 61.84375 15.902344 105.039062 71.664063 105.039062 135.605469zm-268.738281 94.996094c-10.03125 3.320312-20.496094 5.003906-31.261719 5.003906-55.140625 0-100-44.859375-100-100s44.859375-100 100-100c10.761719 0 21.222656 1.683594 31.25 5.007812-20.234375 27.40625-31.25 60.644532-31.25 94.992188 0 34.363281 11.019531 67.605469 31.261719 94.996094zm48.738281-35.109375c-12.949219-17.238281-20-38.113281-20-59.886719s7.050781-42.648438 20-59.886719c12.949219 17.238281 20 38.113281 20 59.886719s-7.050781 42.648438-20 59.886719zm46.875-216.429688-27.652344-39.457031h121.558594l-27.65625 39.457031c-21.726562-4.554687-44.515625-4.554687-66.25 0zm-10.886719-95.457031h88.023438l19.285156 36h-126.59375zm-255.988281 252c0-77.195312 62.804688-140 140-140 64.710938 0 118.898438 43.84375 135.054688 102.984375 1.453124 5.328125 6.953124 8.46875 12.28125 7.011719 5.328124-1.457032 8.464843-6.953125 7.011718-12.28125-5.15625-18.878906-13.917968-36.867188-25.605468-52.710938 10.027343-3.320312 20.496093-5.003906 31.257812-5.003906 55.140625 0 100 44.859375 100 100s-44.859375 100-100 100c-10.800781 0-21.296875-1.699219-31.351562-5.039062 18.585937-25.289063 26.050781-51.914063 26.050781-55.300782 0-5.523437-4.476563-10.003906-10-10.003906-4.40625 0-8.148438 2.851562-9.480469 6.8125-1.890625 5.320312-6.167969 25.460938-25.261719 50.054688-5.777343-3.351563-11.203125-7.25-16.214843-11.695313 16.992187-21.226563 26.257812-47.441406 26.257812-74.828125 0-66.566406-54.230469-120-120-120-66.167969 0-120 53.832031-120 120s53.832031 120 120 120c15.625 0 30.734375-2.953125 45.027344-8.769531 5.085937 5.257812 10.511718 10.164062 16.257812 14.671875-18.984375 9.253906-39.898437 14.097656-61.285156 14.097656-77.195312 0-140-62.804688-140-140zm0 0"/><path d="m263.933594 63.933594c3.902344-3.90625 3.902344-10.238282 0-14.144532l-28.28125-28.28125c-3.90625-3.902343-10.238282-3.902343-14.144532 0-3.902343 3.90625-3.902343 10.238282 0 14.144532l28.28125 28.28125c3.90625 3.902344 10.234376 3.902344 14.144532 0zm0 0"/><path d="m390.210938 63.933594 28.28125-28.28125c3.902343-3.90625 3.902343-10.238282 0-14.144532-3.90625-3.902343-10.238282-3.902343-14.144532 0l-28.28125 28.28125c-3.902344 3.90625-3.902344 10.238282 0 14.144532 3.910156 3.902344 10.238282 3.902344 14.144532 0zm0 0"/><path d="m330 50v-40c0-5.523438-4.476562-10-10-10s-10 4.476562-10 10v40c0 5.523438 4.476562 10 10 10s10-4.476562 10-10zm0 0"/></svg>