<svg height="511pt" viewBox="0 0 511.99939 511" width="511pt" xmlns="http://www.w3.org/2000/svg"><path d="m49.925781 313.035156c-5.511719 0-9.984375 4.472656-9.984375 9.984375s4.472656 9.984375 9.984375 9.984375 9.984375-4.472656 9.984375-9.984375-4.472656-9.984375-9.984375-9.984375zm0 0"/><path d="m229.808594 258.066406c17.199218 4.457032 34.8125 1.6875 49.492187-8.300781 9.4375-6.417969 23.035157-6.070313 33.835938.875 9.644531 6.195313 20.832031 9.472656 32.351562 9.472656 20.113281 0 38.777344-10.011719 49.925781-26.785156 11.394532-17.148437 13.128907-38.414063 4.761719-58.335937-5.402343-12.878907-15.632812-23.246094-28.804687-29.195313-8.984375-4.054687-15.328125-11.492187-17.859375-20.941406-7.046875-26.308594-31.914063-44.988281-59.167969-44.464844-27.855469.558594-50.804688 19.136719-57.105469 46.230469-1.902343 8.148437-7.847656 15.292968-15.511719 18.632812-27.117187 11.8125-41.425781 41.472656-34.027343 70.523438 5.203125 20.421875 21.738281 37.019531 42.109375 42.289062zm-.101563-94.503906c13.535157-5.902344 23.625-18.015625 26.980469-32.414062 3.492188-15.019532 16.613281-30.363282 38.054688-30.789063 18.183593-.347656 34.78125 12.113281 39.480468 29.664063 4.109375 15.339843 14.382813 27.40625 28.933594 33.976562 8.554688 3.859375 15.160156 10.507812 18.605469 18.71875 5.738281 13.65625 4.652343 28.074219-2.980469 39.554688-7.4375 11.1875-19.882812 17.867187-33.292969 17.867187-7.683593 0-15.136719-2.179687-21.554687-6.304687-17.171875-11.03125-39.15625-11.949219-55.863282-.582032-9.679687 6.582032-21.488281 8.527344-33.253906 5.476563-13.433594-3.472657-24.332031-14.417969-27.761718-27.882813-5.632813-22.109375 7.128906-40.523437 22.652343-47.285156zm0 0"/><path d="m458.941406 347.660156-94.136718 32.363282c.417968-2.316407.652343-4.679688.652343-7.078126 0-22.019531-17.917969-39.9375-39.941406-39.9375h-64.664063c-1.714843 0-3.40625-.445312-4.898437-1.285156l-52.757813-29.671875c-10.429687-5.878906-22.285156-8.984375-34.277343-8.984375h-70.785157c-4.121093-11.621094-15.21875-19.972656-28.238281-19.972656h-59.910156c-5.515625 0-9.984375 4.472656-9.984375 9.988281v179.730469c0 5.515625 4.46875 9.984375 9.984375 9.984375h59.910156c12.722657 0 23.628907-7.992187 27.957031-19.214844 11.304688 1.402344 24.382813 4.746094 32.601563 9.675781.039063.023438 52.28125 30.371094 52.28125 30.371094 19.769531 11.847656 42.398437 18.113282 65.445313 18.113282 18.273437 0 35.984374-3.835938 52.632812-11.394532l108.898438-47.367187c5.058593-2.199219 7.375-8.082031 5.175781-13.136719-2.199219-5.058594-8.085938-7.375-13.140625-5.175781 0 0-109.070313 47.441406-109.121094 47.464843-14.0625 6.394532-29.015625 9.636719-44.445312 9.636719-19.453126 0-38.550782-5.292969-55.230469-15.300781-.039063-.023438-52.285157-30.375-52.285157-30.375-11.175781-6.679688-27.148437-10.753906-40.8125-12.394531v-120.664063h69.070313c8.5625 0 17.027344 2.21875 24.480469 6.417969l52.753906 29.671875c4.472656 2.519531 9.554688 3.851562 14.699219 3.851562h64.660156c11.011719 0 19.972656 8.957032 19.972656 19.96875 0 10.972657-8.964843 19.972657-19.972656 19.972657h-101.507813c-5.515624 0-9.984374 4.46875-9.984374 9.984375 0 5.511718 4.46875 9.984375 9.984374 9.984375h101.507813c6.546875 0 12.996094-1.628907 18.71875-4.679688 0 0 121.359375-41.71875 121.40625-41.734375 8.949219-3.230468 19.070313-.011718 23.035156 7.328125 7.617188 14.089844-.074219 20.925781-13.679687 29.007813-5.054688 2.199218-7.371094 8.082031-5.171875 13.136718 2.199219 5.058594 8.082031 7.375 13.140625 5.175782 24.402344-15.519532 37.230468-31.007813 23.277344-56.816406-8.675782-16.0625-29-23.207032-47.300782-16.644532zm-379.058594 95.230469c-.023437 5.480469-4.5 9.9375-9.988281 9.9375h-49.925781v-159.761719h49.925781c5.507813 0 9.988281 4.476563 9.988281 9.984375zm0 0"/><path d="m385.425781 40.441406c0-22.023437-17.917969-39.941406-39.9375-39.941406-22.023437 0-39.941406 17.917969-39.941406 39.941406 0 22.023438 17.917969 39.941406 39.941406 39.941406 22.019531 0 39.9375-17.921874 39.9375-39.941406zm-59.910156 0c0-11.011718 8.960937-19.972656 19.972656-19.972656s19.96875 8.960938 19.96875 19.972656c0 11.011719-8.957031 19.96875-19.96875 19.96875s-19.972656-8.957031-19.972656-19.96875zm0 0"/><path d="m245.636719 80.382812c22.019531 0 39.9375-17.917968 39.9375-39.941406 0-22.023437-17.917969-39.941406-39.9375-39.941406-22.023438 0-39.941407 17.917969-39.941407 39.941406 0 22.023438 17.917969 39.941406 39.941407 39.941406zm0-59.914062c11.011719 0 19.96875 8.960938 19.96875 19.972656 0 11.011719-8.957031 19.96875-19.96875 19.96875s-19.972657-8.957031-19.972657-19.96875c0-11.011718 8.960938-19.972656 19.972657-19.972656zm0 0"/><path d="m425.367188 110.335938c0-16.515626-13.4375-29.953126-29.953126-29.953126-16.519531 0-29.957031 13.4375-29.957031 29.953126 0 16.519531 13.4375 29.957031 29.957031 29.957031 16.515626 0 29.953126-13.4375 29.953126-29.957031zm-29.953126 9.984374c-5.507812 0-9.988281-4.476562-9.988281-9.984374 0-5.503907 4.480469-9.984376 9.988281-9.984376 5.503907 0 9.984376 4.480469 9.984376 9.984376 0 5.507812-4.480469 9.984374-9.984376 9.984374zm0 0"/><path d="m165.753906 110.335938c0 16.519531 13.4375 29.957031 29.957032 29.957031 16.515624 0 29.953124-13.4375 29.953124-29.957031 0-16.515626-13.4375-29.953126-29.953124-29.953126-16.519532 0-29.957032 13.4375-29.957032 29.953126zm39.941406 0c0 5.507812-4.480468 9.984374-9.984374 9.984374-5.507813 0-9.988282-4.476562-9.988282-9.984374 0-5.503907 4.480469-9.984376 9.988282-9.984376 5.503906 0 9.984374 4.480469 9.984374 9.984376zm0 0"/><path d="m452.328125 427.863281c0-5.511719-4.472656-9.984375-9.984375-9.984375s-9.988281 4.472656-9.988281 9.984375 4.476562 9.988281 9.988281 9.988281 9.984375-4.476562 9.984375-9.988281zm0 0"/></svg>