<svg height="512pt" viewBox="0 0 512 512" width="512pt" xmlns="http://www.w3.org/2000/svg"><path d="m502 0h-166c-1.449219 0-3.101562.371094-4.472656 1.054688-47.292969 23.648437-103.761719 23.648437-151.054688 0-1.359375-.679688-3.019531-1.054688-4.472656-1.054688h-166c-5.523438 0-10 4.476562-10 10v120c0 5.523438 4.476562 10 10 10h46c5.515625 0 10 4.484375 10 10v51c0 5.523438 4.476562 10 10 10s10-4.476562 10-10v-51c0-16.542969-13.457031-30-30-30h-36v-100h106.382812c5.121094 67.027344 61.300782 120 129.617188 120s124.496094-52.972656 129.617188-120h106.382812v100h-36c-16.542969 0-30 13.457031-30 30v172c0 10.503906-.972656 20.964844-2.871094 31.21875-5.664062-.808594-11.394531-1.21875-17.128906-1.21875-54.261719 0-101.234375 36.300781-115.589844 87.71875-10.40625-5.03125-22.214844-7.71875-34.410156-7.71875s-24.003906 2.6875-34.410156 7.71875c-14.363282-51.441406-61.351563-87.71875-115.589844-87.71875-5.390625 0-10.769531.359375-16.089844 1.074219-2.582031-12.242188-3.910156-24.726563-3.910156-37.246094v-34.828125c0-5.523438-4.476562-10-10-10s-10 4.476562-10 10v34.828125c0 102.125 77.378906 189.324219 177.375 195.761719 110.605469 7.15625 202.625-80.546875 202.625-189.589844v-172c0-5.515625 4.484375-10 10-10h46c5.523438 0 10-4.476562 10-10v-120c0-5.523438-4.476562-10-10-10zm-177.902344 26.152344c-7.3125 30.832031-35.058594 53.847656-68.097656 53.847656s-60.78125-23.015625-68.097656-53.847656c21.664062 8.355468 44.890625 12.734375 68.097656 12.734375s46.433594-4.378907 68.097656-12.734375zm-68.097656 93.847656c-57.28125 0-104.472656-44.015625-109.539062-100h20.089843c4.992188 44.9375 43.203125 80 89.449219 80s84.457031-35.074219 89.445312-80.011719h20.09375c-5.066406 55.984375-52.257812 100.011719-109.539062 100.011719zm-160.832031 252.578125c3.589843-.382813 7.207031-.578125 10.832031-.578125 53.902344 0 100 44.023438 100 100 0 4.058594-.253906 8.105469-.734375 12.121094-51.496094-16.59375-92.445313-58.082032-110.097656-111.542969zm149.492187 119.050781c-6.652344-.425781-13.304687-1.28125-19.871094-2.527344.804688-5.652343 1.210938-11.371093 1.210938-17.101562 0-3.878906-.207031-7.753906-.574219-11.589844 8.734375-5.445312 19.390625-8.410156 30.574219-8.410156s21.839844 2.964844 30.574219 8.410156c-.367188 3.835938-.574219 7.710938-.574219 11.589844 0 5.734375.410156 11.46875 1.21875 17.132812-13.929688 2.585938-28.203125 3.429688-42.558594 2.496094zm62.097656-7.347656c-.5-4.070312-.757812-8.171875-.757812-12.28125 0-55.902344 46.023438-100 100-100 4.109375 0 8.214844.257812 12.28125.757812-16.597656 53.410157-58.109375 94.921876-111.523438 111.523438zm0 0"/><path d="m249.621094 323.558594c1.878906 1.625 4.214844 2.441406 6.550781 2.441406 2.332031 0 4.667969-.816406 6.546875-2.441406 41.101562-35.621094 72.679688-56.59375 72.679688-89.980469 0-26.679687-19.597657-47.578125-44.617188-47.578125-16.824219 0-27.796875 9.015625-34.609375 18.191406-6.816406-9.175781-17.792969-18.191406-34.621094-18.191406-25.015625 0-44.609375 20.898438-44.609375 47.578125 0 33.402344 31.566406 54.351563 72.679688 89.980469zm-28.070313-117.558594c18.207031 0 24.691407 21.664062 24.992188 22.707031 1.210937 4.3125 5.144531 7.292969 9.628906 7.292969 4.492187 0 8.433594-3 9.636719-7.328125.0625-.230469 6.492187-22.671875 24.972656-22.671875 14.035156 0 24.617188 11.855469 24.617188 27.578125 0 21.792969-23.371094 38.617187-59.226563 69.234375-36-30.742188-59.230469-47.511719-59.230469-69.234375 0-15.722656 10.578125-27.578125 24.609375-27.578125zm0 0"/><path d="m76 251c5.519531 0 10-4.480469 10-10s-4.480469-10-10-10-10 4.480469-10 10 4.480469 10 10 10zm0 0"/></svg>