<svg height="512pt" viewBox="0 0 512 512" width="512pt" xmlns="http://www.w3.org/2000/svg"><path d="m44.953125 253.679688c-9.488281 6.324218-15.15625 16.910156-15.15625 28.320312s5.667969 21.996094 15.15625 28.320312c4.585937 3.054688 10.796875 1.832032 13.867187-2.773437 3.0625-4.597656 1.820313-10.804687-2.773437-13.867187-3.972656-2.648438-6.25-6.902344-6.25-11.679688s2.277344-9.03125 6.25-11.679688c9.488281-6.324218 15.15625-16.910156 15.15625-28.320312s-5.667969-21.996094-15.15625-28.320312c-4.597656-3.0625-10.804687-1.820313-13.867187 2.773437-3.0625 4.597656-1.820313 10.804687 2.773437 13.867187 3.972656 2.644532 6.25 6.902344 6.25 11.679688s-2.277344 9.03125-6.25 11.679688zm0 0"/><path d="m114.953125 253.679688c-9.488281 6.324218-15.15625 16.910156-15.15625 28.320312s5.667969 21.996094 15.15625 28.320312c4.585937 3.054688 10.796875 1.832032 13.867187-2.773437 3.0625-4.597656 1.820313-10.804687-2.773437-13.867187-3.972656-2.648438-6.25-6.902344-6.25-11.679688s2.277344-9.03125 6.25-11.679688c9.488281-6.324218 15.15625-16.910156 15.15625-28.320312s-5.667969-21.996094-15.15625-28.320312c-4.597656-3.0625-10.804687-1.820313-13.867187 2.773437-3.0625 4.597656-1.820313 10.804687 2.773437 13.867187 3.972656 2.644532 6.25 6.902344 6.25 11.679688s-2.277344 9.03125-6.25 11.679688zm0 0"/><path d="m282.046875 58.320312c9.488281-6.324218 15.15625-16.910156 15.15625-28.320312s-5.667969-21.996094-15.15625-28.320312c-4.59375-3.0625-10.804687-1.820313-13.867187 2.773437-3.0625 4.597656-1.820313 10.804687 2.773437 13.867187 3.972656 2.644532 6.25 6.902344 6.25 11.679688s-2.277344 9.03125-6.25 11.679688c-9.488281 6.324218-15.15625 16.910156-15.15625 28.320312s5.667969 21.996094 15.15625 28.320312c4.585937 3.054688 10.796875 1.832032 13.867187-2.773437 3.0625-4.597656 1.820313-10.804687-2.773437-13.867187-3.972656-2.648438-6.25-6.902344-6.25-11.679688s2.277344-9.03125 6.25-11.679688zm0 0"/><path d="m358.046875 58.320312c9.488281-6.324218 15.15625-16.910156 15.15625-28.320312s-5.667969-21.996094-15.15625-28.320312c-4.597656-3.0625-10.804687-1.820313-13.867187 2.773437-3.0625 4.597656-1.820313 10.804687 2.773437 13.867187 3.972656 2.644532 6.25 6.902344 6.25 11.679688s-2.277344 9.03125-6.25 11.679688c-9.488281 6.324218-15.15625 16.910156-15.15625 28.320312s5.667969 21.996094 15.15625 28.320312c4.585937 3.054688 10.796875 1.832032 13.867187-2.773437 3.0625-4.597656 1.820313-10.804687-2.773437-13.867187-3.972656-2.648438-6.25-6.902344-6.25-11.679688s2.277344-9.03125 6.25-11.679688zm0 0"/><path d="m462 160h-30v-30c0-5.523438-4.476562-10-10-10h-226c-5.523438 0-10 4.476562-10 10v55c0 5.519531 4.476562 10 10 10s10-4.480469 10-10v-45h206v222c0 16.542969-13.457031 30-30 30h-10c0-22.054688-17.945312-40-40-40h-26.398438c.253907-3.328125.398438-6.667969.398438-10 0-5.523438-4.476562-10-10-10h-90v-67c0-5.523438-4.476562-10-10-10s-10 4.476562-10 10v67h-176c-5.523438 0-10 4.476562-10 10 0 46.265625 24.296875 86.953125 60.796875 110h-30.796875c-5.523438 0-10 4.476562-10 10 0 27.570312 22.429688 50 50 50h166c27.570312 0 50-22.429688 50-50 0-5.523438-4.476562-10-10-10h-30.765625c8.902344-5.601562 17.15625-12.300781 24.539063-20h62.226562c14.441406 0 27.59375-7.808594 34.640625-20h15.359375c27.570312 0 50-22.429688 50-50v-10h30c27.570312 0 50-22.429688 50-50v-92c0-27.570312-22.429688-50-50-50zm-197.714844 312c-4.125 11.640625-15.25 20-28.285156 20h-166c-13.035156 0-24.160156-8.359375-28.285156-20zm-88.285156-20h-46c-57.285156 0-104.484375-44.023438-109.550781-100.011719h265.101562c-.253906 2.804688-.609375 5.589844-1.074219 8.347657-3.429687 20.453124-12.589843 39.472656-26.503906 54.988281-20.828125 23.308593-50.707031 36.675781-81.972656 36.675781zm156-40h-46.464844c7.863282-12.273438 13.613282-25.773438 16.972656-40h29.492188c13.835938 0 23.441406 13.75 18.859375 26.667969-2.816406 7.972656-10.394531 13.332031-18.859375 13.332031zm100-192h20v72h-20zm60 82c0 16.542969-13.457031 30-30 30h-30v-20h30c5.523438 0 10-4.480469 10-10v-92c0-5.523438-4.476562-10-10-10h-30v-20h30c16.542969 0 30 13.457031 30 30zm0 0"/><path d="m196 235c5.519531 0 10-4.480469 10-10s-4.480469-10-10-10-10 4.480469-10 10 4.480469 10 10 10zm0 0"/></svg>