<svg height="512pt" viewBox="-56 0 512 512" width="512pt" xmlns="http://www.w3.org/2000/svg"><path d="m290 320c5.519531 0 10-4.480469 10-10s-4.480469-10-10-10-10 4.480469-10 10 4.480469 10 10 10zm0 0"/><path d="m150 320c5.519531 0 10-4.480469 10-10s-4.480469-10-10-10-10 4.480469-10 10 4.480469 10 10 10zm0 0"/><path d="m10 320c5.519531 0 10-4.480469 10-10s-4.480469-10-10-10-10 4.480469-10 10 4.480469 10 10 10zm0 0"/><path d="m10 512h100c5.523438 0 10-4.476562 10-10v-392c0-1.382812-.351562-2.871094-.792969-3.902344l-39.921875-99.8125c-1.519531-3.796875-5.195312-6.285156-9.285156-6.285156h-20c-4.089844 0-7.765625 2.488281-9.285156 6.285156l-40 100c-.429688 1.070313-.714844 2.417969-.714844 3.714844v160c0 5.523438 4.476562 10 10 10s10-4.476562 10-10v-110h80v292h-80v-102c0-5.523438-4.476562-10-10-10s-10 4.476562-10 10v152c0 5.523438 4.476562 10 10 10zm46.769531-492h6.460938l32 80h-70.460938zm-36.769531 120v-20h80v20zm80 332v20h-80v-20zm0 0"/><path d="m70 402v-192c0-5.523438-4.476562-10-10-10s-10 4.476562-10 10v192c0 5.523438 4.476562 10 10 10s10-4.476562 10-10zm0 0"/><path d="m150 512h100c5.523438 0 10-4.476562 10-10v-392c0-1.296875-.285156-2.636719-.714844-3.714844l-40-100c-1.519531-3.796875-5.195312-6.285156-9.285156-6.285156h-20c-4.089844 0-7.765625 2.488281-9.285156 6.285156 0 0-39.933594 99.835938-39.941406 99.851563-.03125.101562-.773438 1.65625-.773438 3.863281v160c0 5.523438 4.476562 10 10 10s10-4.476562 10-10v-110h80v292h-80v-102c0-5.523438-4.476562-10-10-10s-10 4.476562-10 10v152c0 5.523438 4.476562 10 10 10zm46.769531-492h6.460938l32 80h-70.460938zm-36.769531 120v-20h80v20zm80 332v20h-80v-20zm0 0"/><path d="m210 402v-192c0-5.523438-4.476562-10-10-10s-10 4.476562-10 10v192c0 5.523438 4.476562 10 10 10s10-4.476562 10-10zm0 0"/><path d="m290 512h100c5.523438 0 10-4.476562 10-10v-392c0-1.300781-.285156-2.640625-.714844-3.714844l-40-100c-1.519531-3.796875-5.195312-6.285156-9.285156-6.285156h-20c-4.089844 0-7.765625 2.488281-9.285156 6.285156l-40 100c-.457032 1.140625-.714844 2.445313-.714844 3.714844v160c0 5.523438 4.476562 10 10 10s10-4.476562 10-10v-110h80v292h-80v-102c0-5.523438-4.476562-10-10-10s-10 4.476562-10 10v152c0 5.523438 4.476562 10 10 10zm46.769531-492h6.460938l32 80h-70.460938zm-36.769531 120v-20h80v20zm80 332v20h-80v-20zm0 0"/><path d="m350 402v-192c0-5.523438-4.476562-10-10-10s-10 4.476562-10 10v192c0 5.523438 4.476562 10 10 10s10-4.476562 10-10zm0 0"/></svg>