<svg height="512pt" viewBox="0 0 512 512" width="512pt" xmlns="http://www.w3.org/2000/svg"><path d="m402 240c-5.519531 0-10 4.480469-10 10s4.480469 10 10 10 10-4.480469 10-10-4.480469-10-10-10zm0 0"/><path d="m316 240c-5.519531 0-10 4.480469-10 10s4.480469 10 10 10 10-4.480469 10-10-4.480469-10-10-10zm0 0"/><path d="m316 300c-5.519531 0-10 4.480469-10 10s4.480469 10 10 10 10-4.480469 10-10-4.480469-10-10-10zm0 0"/><path d="m196 260c5.519531 0 10-4.480469 10-10s-4.480469-10-10-10-10 4.480469-10 10 4.480469 10 10 10zm0 0"/><path d="m196 320c5.519531 0 10-4.480469 10-10s-4.480469-10-10-10-10 4.480469-10 10 4.480469 10 10 10zm0 0"/><path d="m110 260c5.519531 0 10-4.480469 10-10s-4.480469-10-10-10-10 4.480469-10 10 4.480469 10 10 10zm0 0"/><path d="m110 320c5.519531 0 10-4.480469 10-10s-4.480469-10-10-10-10 4.480469-10 10 4.480469 10 10 10zm0 0"/><path d="m472 286v-56c0-27.570312-22.429688-50-50-50h-126c-16.339844 0-30.871094 7.878906-40 20.035156-9.128906-12.15625-23.660156-20.035156-40-20.035156h-126c-27.570312 0-50 22.429688-50 50v56c-22.054688 0-40 17.945312-40 40 0 12.238281 5.492188 23.640625 15.082031 31.292969 1.835938 1.464843 4.917969 4.527343 4.917969 8.628906v76.078125c0 13.035156 8.359375 24.152344 20 28.28125v31.71875c0 5.523438 4.476562 10 10 10h40c3.789062 0 7.25-2.140625 8.945312-5.527344l17.234376-34.472656h60.820312c5.523438 0 10-4.476562 10-10s-4.476562-10-10-10h-127c-5.515625 0-10-4.484375-10-10v-76.078125c0-9.257813-4.425781-17.878906-12.449219-24.265625-4.800781-3.832031-7.550781-9.535156-7.550781-15.65625 0-11.027344 8.972656-20 20-20 11.148438 0 20 9.070312 20 20v70c0 5.523438 4.476562 10 10 10h372c5.523438 0 10-4.476562 10-10v-70c0-8.464844 5.355469-16.042969 13.34375-18.863281 2.121094-.753907 4.363281-1.136719 6.65625-1.136719 11.027344 0 20 8.972656 20 20 0 6.582031-3.242188 13.507812-8.265625 17.648438-7.457031 6.15625-11.734375 14.789062-11.734375 23.679687v74.671875c0 5.515625-4.484375 10-10 10h-205c-5.523438 0-10 4.476562-10 10s4.476562 10 10 10h138.820312l17.234376 34.472656c1.695312 3.386719 5.15625 5.527344 8.945312 5.527344h40c5.523438 0 10-4.476562 10-10v-31.71875c11.640625-4.128906 20-15.246094 20-28.28125v-74.671875c0-3.976563 2.796875-6.878906 4.460938-8.253906 9.730468-8.019531 15.539062-20.382813 15.539062-33.074219 0-22.054688-17.945312-40-40-40zm-388.179688 206h-23.820312v-20h33.820312zm6.179688-292h126c16.542969 0 30 13.457031 30 30v117.71875c-3.128906-1.109375-6.492188-1.71875-10-1.71875h-146c-3.507812 0-6.871094.609375-10 1.71875v-21.71875c0-14.441406-7.808594-27.589844-20-34.640625v-61.359375c0-16.542969 13.457031-30 30-30zm-10 176c0-5.515625 4.484375-10 10-10h146c5.515625 0 10 4.484375 10 10v10h-166zm352 10h-166v-10c0-5.515625 4.484375-10 10-10h146c5.515625 0 10 4.484375 10 10zm0-60v21.71875c-3.128906-1.109375-6.492188-1.71875-10-1.71875h-146c-3.507812 0-6.871094.609375-10 1.71875v-117.71875c0-16.542969 13.457031-30 30-30h126c16.542969 0 30 13.457031 30 30v61.359375c-12.195312 7.054687-20 20.203125-20 34.640625zm-3.820312 166-10-20h33.820312v20zm0 0"/><path d="m156 140h200c16.542969 0 30-13.457031 30-30v-80c0-16.542969-13.457031-30-30-30h-200c-16.542969 0-30 13.457031-30 30v80c0 16.542969 13.457031 30 30 30zm-10-110c0-5.515625 4.484375-10 10-10h200c5.515625 0 10 4.484375 10 10v80c0 5.515625-4.484375 10-10 10h-200c-5.515625 0-10-4.484375-10-10zm0 0"/><path d="m183.070312 97.070312 32.929688-32.929687 32.929688 32.929687c3.90625 3.90625 10.234374 3.90625 14.140624 0l32.929688-32.929687 32.929688 32.929687c3.90625 3.90625 10.234374 3.90625 14.140624 0s3.90625-10.234374 0-14.140624l-40-40c-3.90625-3.90625-10.234374-3.90625-14.140624 0l-32.929688 32.929687-32.929688-32.929687c-3.90625-3.90625-10.234374-3.90625-14.140624 0l-40 40c-3.90625 3.90625-3.90625 10.234374 0 14.140624s10.234374 3.90625 14.140624 0zm0 0"/><path d="m402 300.003906c-5.667969 0-10 4.636719-10 9.996094 0 5.640625 4.621094 10 10 10 5.609375 0 10-4.601562 10-10 0-5.273438-4.257812-9.996094-10-9.996094zm0 0"/><path d="m227 462c0-5.519531-4.480469-10-10-10s-10 4.480469-10 10 4.480469 10 10 10 10-4.480469 10-10zm0 0"/></svg>