<svg height="512pt" viewBox="0 -36 512 512" width="512pt" xmlns="http://www.w3.org/2000/svg"><path d="m442 140c5.519531 0 10-4.480469 10-10s-4.480469-10-10-10-10 4.480469-10 10 4.480469 10 10 10zm0 0"/><path d="m442 260c-5.519531 0-10 4.480469-10 10s4.480469 10 10 10 10-4.480469 10-10-4.480469-10-10-10zm0 0"/><path d="m256 80c5.519531 0 10-4.480469 10-10s-4.480469-10-10-10-10 4.480469-10 10 4.480469 10 10 10zm0 0"/><path d="m110 280c-5.519531 0-10 4.480469-10 10s4.480469 10 10 10 10-4.480469 10-10-4.480469-10-10-10zm0 0"/><path d="m50 180c-5.519531 0-10 4.480469-10 10s4.480469 10 10 10 10-4.480469 10-10-4.480469-10-10-10zm0 0"/><path d="m427.277344 2.492188c-1.824219-1.605469-4.175782-2.492188-6.605469-2.492188h-329.34375c-2.429687 0-4.78125.886719-6.605469 2.492188-54.191406 47.707031-84.722656 115.878906-84.722656 187.507812 0 84.566406 41.917969 158.691406 104.886719 203.59375-3.128907 4.78125-4.886719 10.445312-4.886719 16.40625 0 16.542969 13.457031 30 30 30h252c16.542969 0 30-13.457031 30-30 0-5.960938-1.757812-11.625-4.886719-16.40625 62.933594-44.875 104.886719-118.976562 104.886719-203.59375 0-71.769531-30.628906-139.882812-84.722656-187.507812zm-45.277344 417.507812h-252c-5.515625 0-10-4.484375-10-10 0-5.558594 4.527344-10 10-10h252c5.394531 0 10 4.359375 10 10 0 5.515625-4.484375 10-10 10zm8.015625-38.894531c-2.605469-.71875-5.300781-1.105469-8.015625-1.105469h-252c-2.714844 0-5.417969.386719-8.015625 1.105469-17.308594-11.609375-32.820313-25.390625-46.335937-41.117188h360.703124c-13.515624 15.726563-29.027343 29.507813-46.335937 41.117188zm61.746094-61.105469h-391.523438c-26.339843-38.351562-40.238281-83.1875-40.238281-130 0-38.527344 9.660156-76.429688 27.980469-110h168.019531c5.523438 0 10-4.476562 10-10s-4.476562-10-10-10h-155.75c10.035156-14.617188 21.722656-28.015625 34.898438-40h321.703124c13.175782 11.980469 24.863282 25.378906 34.898438 40h-155.75c-5.523438 0-10 4.476562-10 10s4.476562 10 10 10h168.023438c18.316406 33.566406 27.976562 71.472656 27.976562 110 0 46.8125-13.898438 91.648438-40.238281 130zm0 0"/><path d="m376 140h-10c-25.703125 0-47.675781 16.25-56.203125 39.011719-9.8125-9.207031-24.257813-20.792969-41.65625-28.941407 4.046875-11.617187 9.472656-22.722656 16.234375-33.085937 1.789062-2.746094 2.121094-6.191406.890625-9.226563-1.234375-3.039062-3.875-5.277343-7.070313-5.996093-43.800781-9.847657-68.125 17.648437-84.371093 44.148437-37.773438 13.664063-64.457031 46.386719-65.609375 47.816406-2.953125 3.660157-2.953125 8.882813 0 12.546876 1.152344 1.429687 27.824218 34.136718 65.582031 47.804687 9.9375 16.507813 29.878906 46.171875 67.074219 46.167969 5.402344 0 11.171875-.628906 17.324218-2.011719 3.195313-.71875 5.835938-2.957031 7.070313-5.992187 1.230469-3.035157.898437-6.484376-.890625-9.226563-6.761719-10.367187-12.1875-21.46875-16.234375-33.085937 17.398437-8.148438 31.84375-19.734376 41.65625-28.941407 8.527344 22.761719 30.5 39.011719 56.203125 39.011719h10c5.523438 0 10-4.476562 10-10v-10c0-16.339844-7.878906-30.871094-20.035156-40 12.15625-9.128906 20.035156-23.660156 20.035156-40v-10c0-5.523438-4.476562-10-10-10zm-116.4375-20.253906c-3.988281 7.546875-7.390625 15.375-10.210938 23.425781-7.882812-2.09375-15.703124-3.171875-23.351562-3.171875-1.234375 0-2.472656.03125-3.714844.089844 10.246094-12.34375 21.855469-19.976563 37.277344-20.34375zm-110.125 80.242187c8.539062-8.917969 26.050781-25.132812 47.75-33.945312 5.710938 9.953125 8.8125 21.757812 8.8125 33.957031s-3.097656 24.003906-8.8125 33.953125c-21.625-8.796875-39.1875-25.042969-47.75-33.964844zm72.855469 59.921875c1.238281.058594 2.476562.089844 3.707031.089844 7.648438 0 15.472656-1.078125 23.351562-3.175781 2.820313 8.050781 6.222657 15.882812 10.210938 23.429687-15.414062-.371094-27.023438-8.003906-37.269531-20.34375zm3.707031-19.910156c-2.96875 0-5.988281-.222656-9.046875-.640625 5.886719-11.925781 9.046875-25.480469 9.046875-39.359375s-3.160156-27.433594-9.046875-39.359375c3.058594-.417969 6.078125-.640625 9.046875-.640625 28.570312 0 56.773438 19.378906 76.5625 40.011719-19.730469 20.609375-48.027344 39.988281-76.5625 39.988281zm140 0c-18.605469 0-34.28125-12.765625-38.734375-30h8.734375c16.542969 0 30 13.457031 30 30zm-30-50h-8.734375c4.453125-17.234375 20.128906-30 38.734375-30 0 16.542969-13.457031 30-30 30zm0 0"/><path d="m90 120c-16.542969 0-30 13.457031-30 30s13.457031 30 30 30 30-13.457031 30-30-13.457031-30-30-30zm0 40c-5.515625 0-10-4.484375-10-10s4.484375-10 10-10 10 4.484375 10 10-4.484375 10-10 10zm0 0"/></svg>