<svg height="511pt" viewBox="-25 0 511 511.99973" width="511pt" xmlns="http://www.w3.org/2000/svg"><path d="m210.5 180c5.519531 0 10-4.480469 10-10s-4.480469-10-10-10-10 4.480469-10 10 4.480469 10 10 10zm0 0"/><path d="m130.5 180c5.519531 0 10-4.480469 10-10s-4.480469-10-10-10-10 4.480469-10 10 4.480469 10 10 10zm0 0"/><path d="m70.5 406c5.519531 0 10-4.480469 10-10s-4.480469-10-10-10-10 4.480469-10 10 4.480469 10 10 10zm0 0"/><path d="m143.773438 222.738281c8.402343 3.957031 17.394531 5.960938 26.726562 5.960938 9.136719 0 17.953125-1.925781 26.21875-5.722657 5.019531-2.308593 7.214844-8.246093 4.90625-13.265624-2.304688-5.015626-8.246094-7.214844-13.261719-4.90625-5.625 2.585937-11.632812 3.894531-17.863281 3.894531-6.363281 0-12.488281-1.363281-18.210938-4.058594-4.996093-2.351563-10.953124-.207031-13.308593 4.789063-2.347657 4.996093-.207031 10.957031 4.792969 13.308593zm0 0"/><path d="m10.5 512h410c16.542969 0 30-13.457031 30-30v-63.664062c6.273438-5.625 10-13.742188 10-22.335938v-20c0-16.542969-13.457031-30-30-30h-30v-10c0-16.542969-13.457031-30-30-30h-40c-11.960938 0-22.304688 7.039062-27.121094 17.1875-15.246094-11.066406-33.730468-17.1875-52.878906-17.1875h-15.855469l-14.144531-14.140625v-27.675781c15.113281-10.6875 27.042969-26.304688 33.769531-44.183594h6.230469c22.054688 0 40-17.941406 40-40 0-22.054688-17.945312-40-40-40v-26c28.265625-31.050781 23.652344-70.863281-12.996094-109.871094-.332031-.355468-.601562-.640625-.792968-.855468-2.382813-2.621094-5.972657-3.785157-9.445313-3.0625-3.46875.726562-6.296875 3.230468-7.429687 6.585937-1.074219 3.179687-2.722657 8.804687-5.039063 17.21875-1.480469 5.402344-7.226563 5.984375-9.628906 5.984375h-64.667969c-18.96875 0-34.894531 13.273438-38.984375 31.015625-17.742187 4.089844-31.015625 20.015625-31.015625 38.984375v40c-22.054688 0-40 17.945312-40 40s17.945312 40 40 40h5.152344c6.453125 18.179688 18.761718 34.023438 34.847656 44.8125v27.042969l-14.144531 14.144531h-15.855469c-49.625 0-90 40.375-90 90v106c0 5.523438 4.476562 10 10 10zm168.03125-232.347656c7.589844-.664063 14.933594-2.304688 21.96875-4.898438v17.738282l-30 37.5-30-37.5v-17.621094c11.75 4.15625 24.609375 5.949218 38.03125 4.78125zm6.222656 64.539062 26.574219-33.21875 7.730469 7.726563-13.660156 40.976562zm-55.082031-33.21875 26.574219 33.21875-20.644532 15.484375-13.660156-40.976562zm40.828125 47.527344 10 7.5v20h-20v-20zm-10.753906 47.5h21.507812l6.757813 86h-35.023438zm270.753906 76c0 5.515625-4.484375 10-10 10h-140c-5.515625 0-10-4.484375-10-10v-56h50v10c0 5.523438 4.476562 10 10 10h40c5.523438 0 10-4.476562 10-10v-10h50zm-70-56h-20v-20h20zm80-50v20c0 5.496094-4.5 10-10 10h-50v-10c0-5.523438-4.476562-10-10-10h-40c-5.523438 0-10 4.476562-10 10v10h-50c-5.445312 0-10-4.445312-10-10v-20c0-5.515625 4.484375-10 10-10h160c5.515625 0 10 4.484375 10 10zm-110-50h40c5.515625 0 10 4.484375 10 10v10h-60v-10c0-5.515625 4.484375-10 10-10zm-31.042969 20h-28.957031c-16.542969 0-30 13.457031-30 30v20c0 8.601562 3.730469 16.722656 10 22.339844v63.660156c0 3.503906.609375 6.871094 1.71875 10h-44.144531l-7.574219-96.398438v-14.601562l4 3c2.578125 1.933594 5.921875 2.5 8.980469 1.542969 3.070312-.957031 5.488281-3.332031 6.507812-6.382813l17.71875-53.160156h12.792969c18.351562 0 35.910156 7.242188 48.957031 20zm-18.957031-166c0 11.027344-8.972656 20-20 20h-1.050781c.695312-4.6875 1.050781-9.414062 1.050781-14.148438v-25.851562c11.027344 0 20 8.972656 20 20zm-180-80c0-11.027344 8.972656-20 20-20 5.523438 0 10-4.476562 10-10 0-11.027344 8.972656-20 20-20h64.667969c13.609375 0 24.644531-7.546875 28.507812-19.339844 14.949219 20.375 23.425781 45.78125 2.515625 69.339844h-107.410156c-7.894531 0-15.628906 3.203125-21.214844 8.789062l-17.066406 17.070313zm-40 80c0-11.027344 8.972656-20 20-20v30c0 3.351562.195312 6.6875.5625 10h-.5625c-11.027344 0-20-8.972656-20-20zm40 10v-35.859375l31.210938-31.210937c1.863281-1.863282 4.4375-2.929688 7.070312-2.929688h101.71875v65.851562c0 37.074219-26.9375 70.664063-63.707031 73.875-41.445313 3.601563-76.292969-28.925781-76.292969-69.726562zm-80 206c0-38.597656 31.402344-70 70-70h12.792969l17.71875 53.160156c1.019531 3.050782 3.4375 5.425782 6.507812 6.382813 2.996094.9375 6.351563.429687 8.980469-1.542969l4-3v14.601562l-7.574219 96.398438h-52.425781v-56c0-5.523438-4.476562-10-10-10s-10 4.476562-10 10v56h-40zm0 0"/></svg>