<svg height="512pt" viewBox="-26 0 512 512" width="512pt" xmlns="http://www.w3.org/2000/svg"><path d="m210 160c-5.519531 0-10 4.480469-10 10s4.480469 10 10 10 10-4.480469 10-10-4.480469-10-10-10zm0 0"/><path d="m130 160c-5.519531 0-10 4.480469-10 10s4.480469 10 10 10 10-4.480469 10-10-4.480469-10-10-10zm0 0"/><path d="m70 406c5.519531 0 10-4.480469 10-10s-4.480469-10-10-10-10 4.480469-10 10 4.480469 10 10 10zm0 0"/><path d="m187.863281 204.804688c-5.625 2.585937-11.632812 3.894531-17.863281 3.894531-6.363281 0-12.488281-1.363281-18.210938-4.058594-5-2.351563-10.953124-.207031-13.308593 4.792969-2.351563 4.996094-.207031 10.953125 4.792969 13.304687 8.40625 3.957031 17.398437 5.960938 26.726562 5.960938 9.136719 0 17.957031-1.925781 26.21875-5.722657 5.015625-2.308593 7.214844-8.246093 4.910156-13.261718-2.308594-5.019532-8.25-7.21875-13.265625-4.910156zm0 0"/><path d="m460 376c0-16.542969-13.457031-30-30-30h-30v-10c0-16.542969-13.457031-30-30-30h-40c-11.960938 0-22.308594 7.039062-27.121094 17.191406-.945312-.6875-1.90625-1.355468-2.878906-2.003906v-191.1875c0-71.683594-58.316406-130-130-130s-130 58.316406-130 130v191.160156c-24.8125 16.625-40 44.785156-40 74.839844v106c0 5.523438 4.476562 10 10 10h410c16.542969 0 30-13.457031 30-30v-63.664062c6.273438-5.625 10-13.742188 10-22.335938zm-20 0v20c0 5.492188-4.496094 10-10 10h-50v-10c0-5.523438-4.476562-10-10-10h-40c-5.523438 0-10 4.476562-10 10v10h-50c-5.457031 0-10-4.453125-10-10v-20c0-5.515625 4.484375-10 10-10h160c5.515625 0 10 4.484375 10 10zm-100 30h20v20h-20zm-10-80h40c5.515625 0 10 4.484375 10 10v10h-60v-10c0-5.515625 4.484375-10 10-10zm-160 3.992188-30-37.5v-17.621094c11.75 4.15625 24.609375 5.949218 38.03125 4.78125 7.589844-.664063 14.933594-2.304688 21.96875-4.898438v17.738282zm-64.144531-23.992188h-15.855469c-10.257812 0-20.40625 1.765625-30 5.148438v-96.53125c5.886719 3.417968 12.71875 5.382812 20 5.382812h5.152344c6.453125 18.179688 18.761718 34.023438 34.847656 44.8125v27.042969zm154.144531-120.148438v-25.851562c11.027344 0 20 8.972656 20 20s-8.972656 20-20 20h-1.050781c.695312-4.6875 1.050781-9.414062 1.050781-14.148438zm-20 0c0 37.078126-26.9375 70.664063-63.707031 73.875-41.6875 3.625-76.292969-29.199218-76.292969-69.726562v-49h10.09375c25.449219-.238281 47.765625-14.203125 59.996094-34.828125 12.277344 20.261719 34.539062 33.828125 59.910156 33.828125h10zm-159.4375 14.148438h-.5625c-11.027344 0-20-8.972656-20-20s8.972656-20 20-20v30c0 3.351562.195312 6.6875.5625 10zm48.609375 110.972656 26.574219 33.21875-20.644532 15.484375-13.660156-40.976562zm81.65625 0 7.730469 7.726563-13.660156 40.976562-20.644532-15.484375zm23.316406-4.972656-14.144531-14.144531v-27.671875c15.113281-10.6875 27.042969-26.304688 33.769531-44.183594h6.230469c7.28125 0 14.113281-1.964844 20-5.382812v96.535156c-9.585938-3.386719-19.738281-5.152344-30-5.152344zm-64.144531-286c60.652344 0 110 49.347656 110 110v15.382812c-5.886719-3.417968-12.71875-5.382812-20-5.382812v-10c0-5.523438-4.476562-10-10-10h-20c-27.570312 0-50-22.429688-50-50 0-5.523438-4.476562-10-10-10s-10 4.476562-10 10c0 27.863281-22.472656 50.742188-50 51h-20c-5.523438 0-10 4.476562-10 10v9c-7.28125 0-14.113281 1.964844-20 5.382812v-15.382812c0-60.652344 49.347656-110 110-110zm-150 376c0-37.914062 30.695312-70 70-70h12.792969l17.71875 53.160156c2.171875 6.511719 10.0625 8.910156 15.488281 4.839844l34-25.5 34 25.5c5.425781 4.066406 13.316406 1.675781 15.488281-4.839844l17.71875-53.160156h12.792969c18.277344 0 35.808594 7.101562 48.980469 20h-28.980469c-16.542969 0-30 13.457031-30 30v20c0 8.601562 3.730469 16.722656 10 22.34375v63.65625c0 3.507812.609375 6.871094 1.71875 10h-171.71875v-56c0-5.523438-4.476562-10-10-10s-10 4.476562-10 10v56h-40zm410 86c0 5.515625-4.484375 10-10 10h-140c-5.515625 0-10-4.484375-10-10v-56h50v10c0 5.523438 4.476562 10 10 10h40c5.523438 0 10-4.476562 10-10v-10h50zm0 0"/></svg>