<svg height="512pt" viewBox="0 0 512 512" width="512pt" xmlns="http://www.w3.org/2000/svg"><path d="m210 160c-5.519531 0-10 4.480469-10 10s4.480469 10 10 10 10-4.480469 10-10-4.480469-10-10-10zm0 0"/><path d="m130 160c-5.519531 0-10 4.480469-10 10s4.480469 10 10 10 10-4.480469 10-10-4.480469-10-10-10zm0 0"/><path d="m70 400c5.519531 0 10-4.480469 10-10s-4.480469-10-10-10-10 4.480469-10 10 4.480469 10 10 10zm0 0"/><path d="m187.863281 204.804688c-5.625 2.585937-11.632812 3.894531-17.863281 3.894531-6.363281 0-12.488281-1.363281-18.210938-4.058594-5-2.351563-10.953124-.207031-13.308593 4.792969-2.351563 4.996094-.207031 10.953125 4.792969 13.304687 8.40625 3.957031 17.398437 5.960938 26.726562 5.960938 9.136719 0 17.957031-1.925781 26.21875-5.722657 5.015625-2.308593 7.214844-8.246093 4.910156-13.261718-2.308594-5.019532-8.25-7.21875-13.265625-4.910156zm0 0"/><path d="m502 230c0-60.652344-49.347656-110-110-110-37.164062 0-70.074219 18.527344-90 46.828125v-36.828125c0-71.683594-58.765625-130-131-130s-131 58.316406-131 130v185.160156c-24.8125 16.625-40 44.785156-40 74.839844v112c0 5.523438 4.476562 10 10 10h492c5.523438 0 10-4.476562 10-10v-92c0-12.796875-3.453125-25.195312-10-36.0625zm-110-90c49.625 0 90 40.375 90 90v122.539062c-11.566406-8.054687-25.457031-12.539062-40-12.539062-5.351562 0-10-4.304688-10-10v-12.5625c18.636719-13.011719 30-34.511719 30-57.4375v-30c0-5.523438-4.476562-10-10-10h-30c-4.65625 0-20-6.234375-20-20 0-5.523438-4.476562-10-10-10s-10 4.476562-10 10c0 11.027344-8.972656 20-20 20h-30c-5.523438 0-10 4.476562-10 10v30c0 22.929688 11.363281 44.425781 30 57.4375v12.5625c0 5.601562-4.566406 10-10 10-14.542969 0-28.433594 4.484375-40 12.539062 0-16.253906 0-108.550781 0-122.539062 0-49.625 40.375-90 90-90zm-50 100h20c12.167969 0 23.082031-5.460938 30.425781-14.058594 1.410157 1.507813 2.953125 2.9375 4.628907 4.28125 7.523437 6.03125 17.082031 9.777344 24.945312 9.777344h20v20c0 27.246094-22.085938 50-50 50-27.929688 0-50-22.769531-50-50zm30 90v-2.917969c6.460938 1.921875 13.199219 2.917969 20 2.917969s13.539062-.996094 20-2.917969v2.917969c0 6.628906 2.140625 12.882812 5.953125 17.96875-7.199219 7.71875-16.339844 12.03125-25.953125 12.03125-9.617188 0-18.757812-4.3125-25.957031-12.035156 3.820312-5.09375 5.957031-11.34375 5.957031-17.964844zm-202-6.007812-30-37.5v-11.621094c11.75 4.15625 24.609375 5.949218 38.03125 4.78125 7.589844-.664063 14.933594-2.304688 21.96875-4.898438v11.738282zm-64.144531-23.992188h-15.855469c-10.257812 0-20.40625 1.765625-30 5.148438v-90.53125c5.886719 3.417968 12.71875 5.382812 20 5.382812h5.152344c6.453125 18.179688 18.761718 34.023438 34.847656 44.8125v21.042969zm154.144531-114.148438v-25.851562c11.027344 0 20 8.972656 20 20s-8.972656 20-20 20h-1.050781c.695312-4.6875 1.050781-9.414062 1.050781-14.148438zm-20 0c0 36.996094-26.902344 70.664063-63.707031 73.875-41.6875 3.625-76.292969-29.199218-76.292969-69.726562v-49h10.09375c25.449219-.238281 47.765625-14.203125 59.996094-34.828125 12.277344 20.261719 34.539062 33.828125 59.910156 33.828125h10zm-159.4375 14.148438h-.5625c-11.027344 0-20-8.972656-20-20s8.972656-20 20-20v30c0 3.351562.195312 6.6875.5625 10zm48.609375 104.972656 26.574219 33.21875-20.644532 15.484375-13.660156-40.976562zm81.65625 0 7.730469 7.726563-13.660156 40.976562-20.644532-15.484375zm23.316406-4.972656-14.144531-14.144531v-21.671875c15.113281-10.6875 27.042969-26.304688 33.769531-44.183594h6.230469c8.121094 0 15.683594-2.441406 22-6.617188v92.5c-10.164062-3.867187-20.996094-5.882812-32-5.882812zm-63.144531-280c61.207031 0 111 49.347656 111 110v16.617188c-6.316406-4.175782-13.878906-6.617188-22-6.617188v-10c0-5.523438-4.476562-10-10-10h-20c-27.570312 0-50-22.429688-50-50 0-5.523438-4.476562-10-10-10s-10 4.476562-10 10c0 27.863281-22.472656 50.742188-50 51h-20c-5.523438 0-10 4.476562-10 10v9c-7.28125 0-14.113281 1.964844-20 5.382812v-15.382812c0-60.652344 49.792969-110 111-110zm-151 370c0-37.914062 30.695312-70 70-70h12.792969l17.71875 53.160156c1.019531 3.050782 3.4375 5.425782 6.507812 6.386719 3.050781.953125 6.394531.390625 8.980469-1.546875l34-25.5 34 25.5c5.421875 4.066406 13.316406 1.675781 15.484375-4.839844l17.722656-53.160156h12.792969c11.183594 0 22.140625 2.664062 32 7.738281v46.199219c-6.546875 10.867188-10 23.265625-10 36.0625v82h-192v-62c0-5.523438-4.476562-10-10-10s-10 4.476562-10 10v62h-40zm472 102h-30v-82c0-5.523438-4.476562-10-10-10s-10 4.476562-10 10v82h-100v-82c0-5.523438-4.476562-10-10-10s-10 4.476562-10 10v82h-30v-82c0-27.511719 22.257812-50 50-50 2.445312 0 4.859375-.3125 7.191406-.886719 11.210938 13.363281 26.441406 20.886719 42.808594 20.886719s31.597656-7.523438 42.808594-20.890625c2.335937.578125 4.746094.890625 7.191406.890625 27.609375 0 50 22.363281 50 50zm0 0"/></svg>