<svg height="512pt" viewBox="-86 0 512 512" width="512pt" xmlns="http://www.w3.org/2000/svg"><path d="m210 174c5.519531 0 10-4.480469 10-10s-4.480469-10-10-10-10 4.480469-10 10 4.480469 10 10 10zm0 0"/><path d="m130 174c5.519531 0 10-4.480469 10-10s-4.480469-10-10-10-10 4.480469-10 10 4.480469 10 10 10zm0 0"/><path d="m143.269531 216.738281c8.40625 3.957031 17.398438 5.960938 26.730469 5.960938 9.132812 0 17.953125-1.925781 26.21875-5.722657 5.015625-2.308593 7.214844-8.246093 4.90625-13.261718-2.304688-5.019532-8.246094-7.21875-13.261719-4.910156-5.625 2.585937-11.632812 3.894531-17.863281 3.894531-6.363281 0-12.488281-1.363281-18.210938-4.058594-4.996093-2.351563-10.953124-.207031-13.308593 4.789063-2.347657 5-.207031 10.957031 4.789062 13.308593zm0 0"/><path d="m72.964844 73.511719c2.714844-4.808594 1.019531-10.910157-3.789063-13.625-4.808593-2.714844-10.910156-1.019531-13.625 3.789062-10.320312 18.273438-15.550781 38.566407-15.550781 60.324219v191.160156c-24.8125 16.625-40 44.785156-40 74.839844v112c0 5.523438 4.476562 10 10 10h320c5.523438 0 10-4.476562 10-10v-112c0-30.050781-15.183594-58.207031-40-74.839844v-191.160156c0-71.503906-57.867188-124-130-124-16.992188 0-33.429688 2.898438-48.851562 8.613281-5.175782 1.917969-7.820313 7.671875-5.898438 12.851563 1.917969 5.179687 7.675781 7.820312 12.851562 5.902344 13.1875-4.886719 27.285157-7.367188 41.898438-7.367188 62.710938 0 110 44.710938 110 104v15.382812c-5.886719-3.417968-12.71875-5.382812-20-5.382812v-10c0-5.523438-4.476562-10-10-10h-20c-27.570312 0-50-22.429688-50-50 0-5.523438-4.476562-10-10-10s-10 4.476562-10 10c0 27.773438-22.003906 49.738281-50 50h-20c-5.523438 0-10 4.476562-10 10v10c-7.28125 0-14.113281 1.964844-20 5.382812v-15.382812c0-18.269531 4.363281-35.253906 12.964844-50.488281zm12.1875 140.488281c6.453125 18.179688 18.761718 34.023438 34.847656 44.8125v11.1875c0 16.953125-13.78125 30-30 30-7.59375 0-15.160156.953125-22.496094 2.835938-2.535156.652343-5.035156 1.429687-7.503906 2.304687v-96.523437c5.886719 3.414062 12.71875 5.382812 20 5.382812zm168.617187 0h6.230469c7.28125 0 14.113281-1.964844 20-5.382812v96.523437c-2.472656-.875-4.976562-1.652344-7.515625-2.304687-7.324219-1.882813-14.890625-2.835938-22.484375-2.835938-16.199219 0-30-13.027344-30-30v-11.816406c15.113281-10.6875 27.042969-26.304688 33.769531-44.183594zm-13.769531 166v-61.015625c3.28125.667969 6.628906 1.015625 10 1.015625 3.351562 0 6.695312.246094 10 .71875v59.28125zm-20-57.503906v57.503906h-100v-57.503906c14.007812 11.277344 31.449219 17.503906 50 17.503906s35.992188-6.226562 50-17.503906zm-120 57.503906h-20v-59.28125c3.304688-.472656 6.648438-.71875 10-.71875 3.371094 0 6.71875-.347656 10-1.019531zm-38.320312 40.507812 13.671874-20.507812h189.296876l13.667968 20.503906c1.101563 1.652344 1.683594 3.574219 1.683594 5.554688v65.941406h-220v-65.941406c0-1.980469.582031-3.902344 1.679688-5.550782zm150.472656-117.828124c-11.164063 11.085937-26.097656 17.320312-42.152344 17.320312s-30.988281-6.234375-42.152344-17.320312c7.804688-8.984376 12.152344-20.441407 12.152344-32.679688v-1.128906c11.75 4.15625 24.609375 5.949218 38.03125 4.78125 7.589844-.664063 14.933594-2.304688 21.96875-4.898438v1.246094c0 12.238281 4.347656 23.691406 12.152344 32.679688zm-192.152344 87.320312c0-26.265625 15.035156-51.398438 40-63.253906v60.226562l-14.964844 22.445313c-3.292968 4.949219-5.035156 10.703125-5.035156 16.640625v65.941406h-20zm300 0v102h-20v-65.941406c0-5.9375-1.742188-11.691406-5.039062-16.644532l-14.960938-22.441406v-60.226562c24.835938 11.789062 40 36.851562 40 63.253906zm-40-216c0 11.027344-8.972656 20-20 20h-1.050781c.695312-4.6875 1.050781-9.414062 1.050781-14.148438v-25.851562c11.027344 0 20 8.972656 20 20zm-180-40h10.09375c25.363281-.238281 47.617188-13.566406 59.929688-33.933594 12.265624 20.316406 34.5625 33.933594 59.976562 33.933594h10v45.851562c0 37.078126-26.9375 70.664063-63.707031 73.875-41.394531 3.605469-76.292969-28.882812-76.292969-69.726562zm-20 20v30c0 3.351562.195312 6.6875.5625 10h-.5625c-11.027344 0-20-8.972656-20-20s8.972656-20 20-20zm0 0"/><path d="m110 440h120c5.523438 0 10-4.476562 10-10s-4.476562-10-10-10h-120c-5.523438 0-10 4.476562-10 10s4.476562 10 10 10zm0 0"/><path d="m90 48c5.519531 0 10-4.480469 10-10s-4.480469-10-10-10-10 4.480469-10 10 4.480469 10 10 10zm0 0"/></svg>