<svg height="512pt" viewBox="0 -16 512 512" width="512pt" xmlns="http://www.w3.org/2000/svg"><path d="m482 300h-116v-10c0-16.542969-13.457031-30-30-30h-39.460938l-6.667968-20h146.128906c5.523438 0 10-4.476562 10-10v-220c0-5.523438-4.476562-10-10-10h-168c-5.523438 0-10 4.476562-10 10s4.476562 10 10 10h158v200c-61.453125 0-262.585938 0-340 0v-200h102c5.523438 0 10-4.476562 10-10s-4.476562-10-10-10h-112c-5.523438 0-10 4.476562-10 10v220c0 5.523438 4.476562 10 10 10h146.128906l-6.667968 20h-39.460938c-16.542969 0-30 13.457031-30 30v10h-116c-16.542969 0-30 13.457031-30 30v100c0 5.523438 4.476562 10 10 10h30v30c0 5.523438 4.476562 10 10 10h40c4.167969 0 7.898438-2.585938 9.363281-6.488281l12.566407-33.511719h288.140624l12.566407 33.511719c1.464843 3.902343 5.195312 6.488281 9.363281 6.488281h40c5.523438 0 10-4.476562 10-10v-30h30c5.523438 0 10-4.476562 10-10v-100c0-16.542969-13.457031-30-30-30zm-238.792969-60h25.582031l6.667969 20h-38.914062zm-77.207031 50c0-5.515625 4.484375-10 10-10h160c5.515625 0 10 4.484375 10 10v10h-180zm-146 40c0-5.515625 4.484375-10 10-10h216v100h-226zm63.070312 130h-23.070312v-20h30.570312zm368.929688 0h-23.070312l-7.5-20h30.570312zm40-40h-226v-100h216c5.515625 0 10 4.484375 10 10zm0 0"/><path d="m462 340h-166c-5.523438 0-10 4.476562-10 10v40c0 5.523438 4.476562 10 10 10h166c5.523438 0 10-4.476562 10-10v-40c0-5.523438-4.476562-10-10-10zm-10 40h-146v-20h146zm0 0"/><path d="m216 400c5.523438 0 10-4.476562 10-10v-40c0-5.523438-4.476562-10-10-10h-166c-5.523438 0-10 4.476562-10 10v40c0 5.523438 4.476562 10 10 10zm-156-40h146v20h-146zm0 0"/><path d="m238 10c0-5.519531-4.480469-10-10-10s-10 4.480469-10 10 4.480469 10 10 10 10-4.480469 10-10zm0 0"/></svg>