<svg height="512pt" viewBox="0 -46 512 512" width="512pt" xmlns="http://www.w3.org/2000/svg"><path d="m30 420h280c16.542969 0 30-13.457031 30-30v-70h102c5.523438 0 10-4.476562 10-10v-50h50c5.523438 0 10-4.476562 10-10v-160c0-5.523438-4.476562-10-10-10h-162v-50c0-16.542969-13.457031-30-30-30h-105c-5.523438 0-10 4.476562-10 10s4.476562 10 10 10h105c5.515625 0 10 4.484375 10 10v320c0 5.515625-4.484375 10-10 10h-250v-340h65c5.523438 0 10-4.476562 10-10s-4.476562-10-10-10h-95c-16.542969 0-30 13.457031-30 30v360c0 16.542969 13.457031 30 30 30zm402-120h-92v-40h92zm60-200v140h-152v-40h102c5.523438 0 10-4.476562 10-10s-4.476562-10-10-10h-102v-20h102c5.523438 0 10-4.476562 10-10s-4.476562-10-10-10h-102v-40zm-172 278.285156v11.714844c0 5.515625-4.484375 10-10 10h-280c-5.515625 0-10-4.484375-10-10s4.484375-10 10-10h280c3.503906 0 6.871094-.605469 10-1.714844zm-290-358.285156h10v340h-10c-3.507812 0-6.871094.609375-10 1.71875v-331.71875c0-5.515625 4.484375-10 10-10zm0 0"/><path d="m90 190c0 54.601562 43.996094 100 100 100 56.226562 0 100-45.628906 100-100 0-54.605469-44.003906-100-100-100-56.226562 0-100 45.628906-100 100zm100-80c7.015625 0 16.363281 10.257812 22.789062 30h-45.574218c6.421875-19.742188 15.769531-30 22.785156-30zm27.574219 50c1.585937 9.523438 2.425781 19.742188 2.425781 30s-.839844 20.476562-2.425781 30h-55.144531c-1.589844-9.515625-2.429688-19.730469-2.429688-30 0-10.265625.839844-20.480469 2.429688-30zm46.605469 0c3.859374 9.496094 5.820312 19.558594 5.820312 30s-1.960938 20.503906-5.820312 30h-26.355469c1.4375-9.625 2.175781-19.664062 2.175781-30s-.738281-20.375-2.175781-30zm-74.179688 110c-7.015625 0-16.363281-10.265625-22.78125-30.011719h45.570312c-6.425781 19.746094-15.773437 30.011719-22.789062 30.011719zm-47.824219-50h-26.359375c-3.855468-9.496094-5.816406-19.558594-5.816406-30s1.957031-20.511719 5.816406-30.011719h26.359375c-1.433593 9.621094-2.175781 19.667969-2.175781 30.011719 0 10.347656.742188 20.386719 2.175781 30zm-14.671875 20h18.839844c2.226562 8.144531 4.945312 15.425781 8.089844 21.738281-10.390625-5.136719-19.589844-12.515625-26.929688-21.738281zm98.0625 21.738281c3.148438-6.3125 5.867188-13.605469 8.09375-21.75h18.839844c-7.339844 9.222657-16.539062 16.613281-26.933594 21.75zm26.933594-121.738281h-18.839844c-2.226562-8.140625-4.949218-15.425781-8.09375-21.738281 10.394532 5.136719 19.59375 12.515625 26.933594 21.738281zm-98.066406-21.738281c-3.144532 6.3125-5.863282 13.597656-8.089844 21.738281h-18.84375c7.339844-9.222656 16.539062-16.601562 26.933594-21.738281zm0 0"/><path d="m175 10c0-5.519531-4.480469-10-10-10s-10 4.480469-10 10 4.480469 10 10 10 10-4.480469 10-10zm0 0"/></svg>