<svg height="512pt" viewBox="-106 0 512 512" width="512pt" xmlns="http://www.w3.org/2000/svg"><path d="m300 422v-292c0-27.570312-22.429688-50-50-50h-30v-21.71875c11.640625-4.128906 20-15.246094 20-28.28125 0-16.542969-13.457031-30-30-30h-120c-16.542969 0-30 13.457031-30 30 0 13.035156 8.359375 24.152344 20 28.28125v21.71875h-30c-27.570312 0-50 22.429688-50 50v83c0 5.523438 4.476562 10 10 10s10-4.476562 10-10v-83c0-16.542969 13.457031-30 30-30h200c16.542969 0 30 13.457031 30 30v262h-40v-136c0-16.542969-13.457031-30-30-30h-120c-16.542969 0-30 13.457031-30 30v136h-40v-99c0-5.523438-4.476562-10-10-10s-10 4.476562-10 10v129c0 24.835938 18.199219 45.488281 41.960938 49.34375-1.261719 3.316406-1.960938 6.902344-1.960938 10.65625 0 16.542969 13.457031 30 30 30s30-13.457031 30-30c0-3.507812-.609375-6.878906-1.71875-10.011719h103.4375c-1.109375 3.132813-1.71875 6.503907-1.71875 10.011719 0 16.542969 13.457031 30 30 30s30-13.457031 30-30c0-3.753906-.699219-7.339844-1.960938-10.65625 23.761719-3.855469 41.960938-24.507812 41.960938-49.34375zm-210-402h120c5.515625 0 10 4.484375 10 10s-4.484375 10-10 10h-120c-5.515625 0-10-4.484375-10-10s4.484375-10 10-10zm10 40h100v20h-100zm-10 186h120c5.515625 0 10 4.484375 10 10v50h-140v-50c0-5.515625 4.484375-10 10-10zm-10 80h140v66h-140zm0 156c0 5.515625-4.484375 10-10 10s-10-4.484375-10-10 4.484375-10 10-10 10 4.484375 10 10zm150 10c-5.515625 0-10-4.484375-10-10s4.484375-10 10-10 10 4.484375 10 10-4.484375 10-10 10zm20-40h-200c-16.542969 0-30-13.457031-30-30v-10h260v10c0 16.542969-13.457031 30-30 30zm0 0"/><path d="m210 190c5.523438 0 10-4.476562 10-10v-20h10c5.523438 0 10-4.476562 10-10s-4.476562-10-10-10h-160c-5.523438 0-10 4.476562-10 10s4.476562 10 10 10h130v20c0 5.523438 4.476562 10 10 10zm0 0"/><path d="m110 286h80c5.523438 0 10-4.476562 10-10s-4.476562-10-10-10h-80c-5.523438 0-10 4.476562-10 10s4.476562 10 10 10zm0 0"/><path d="m10 263c5.519531 0 10-4.480469 10-10s-4.480469-10-10-10-10 4.480469-10 10 4.480469 10 10 10zm0 0"/></svg>