<svg height="512pt" viewBox="0 -56 512 512" width="512pt" xmlns="http://www.w3.org/2000/svg"><path d="m386 320h-260c-5.523438 0-10 4.476562-10 10s4.476562 10 10 10h260c5.523438 0 10-4.476562 10-10s-4.476562-10-10-10zm0 0"/><path d="m482 0c-16.542969 0-30 13.457031-30 30v30h-73.640625c-9.980469 0-18.953125-5.546875-23.414063-14.472656-7.875-15.746094-23.703124-25.527344-41.304687-25.527344h-115.28125c-17.601563 0-33.429687 9.78125-41.304687 25.527344-4.460938 8.925781-13.433594 14.472656-23.414063 14.472656h-73.640625v-30c0-16.542969-13.457031-30-30-30s-30 13.457031-30 30v143c0 5.523438 4.476562 10 10 10s10-4.476562 10-10v-143c0-5.515625 4.484375-10 10-10s10 4.484375 10 10v350h-20v-127c0-5.523438-4.476562-10-10-10s-10 4.476562-10 10v137c0 5.523438 4.476562 10 10 10h40c5.523438 0 10-4.476562 10-10v-10h392v10c0 5.523438 4.476562 10 10 10h40c5.523438 0 10-4.476562 10-10v-360c0-16.542969-13.457031-30-30-30zm-126 280v-20h40v20zm-60 0v-20h40v20zm-60 0v-20h40v20zm-60 0v-20h40v20zm-60 0v-20h40v20zm-56 0v-20h36v20zm96-160v120h-40v-120zm60 0v120h-40v-120zm60 0v120h-40v-120zm60 0v120h-40v-120zm60 0v120h-40v-120zm56 0v120h-36v-120zm-356 120h-36v-120h36zm320 20h36v20h-36zm-282.359375-180c17.601563 0 33.429687-9.78125 41.304687-25.527344 4.460938-8.925781 13.433594-14.472656 23.414063-14.472656h115.28125c9.980469 0 18.953125 5.546875 23.414063 14.472656 7.875 15.746094 23.703124 25.527344 41.304687 25.527344h73.640625v20h-392v-20zm-73.640625 280v-60h392v60zm432 20h-20v-350c0-5.515625 4.484375-10 10-10s10 4.484375 10 10zm0 0"/><path d="m10 223c5.519531 0 10-4.480469 10-10s-4.480469-10-10-10-10 4.480469-10 10 4.480469 10 10 10zm0 0"/></svg>