<svg height="512pt" viewBox="0 -16 512 512" width="512pt" xmlns="http://www.w3.org/2000/svg"><path d="m10 480h492c5.523438 0 10-4.476562 10-10s-4.476562-10-10-10h-30v-80c11.4375-.007812 21.714844-6.355469 26.835938-16.582031 7.394531-14.800781 1.375-32.859375-13.414063-40.253907-.058594-.027343-.117187-.054687-.175781-.082031l-119.246094-56.757812v-40.882813l12.5625 8.972656c13.625 9.742188 32.347656 6.316407 41.851562-6.980468 9.644532-13.484375 6.523438-32.203125-6.980468-41.851563l-140.011719-100.007812c-2.308594-1.644531-4.804687-2.917969-7.421875-3.84375v-41.730469h10c5.523438 0 10-4.476562 10-10s-4.476562-10-10-10h-10v-10c0-5.523438-4.476562-10-10-10s-10 4.476562-10 10v10h-10c-5.523438 0-10 4.476562-10 10s4.476562 10 10 10h10v41.730469c-2.617188.925781-5.121094 2.203125-7.433594 3.851562l-34.914062 24.9375c-4.492188 3.210938-5.535156 9.457031-2.324219 13.949219 3.207031 4.496094 9.453125 5.535156 13.949219 2.328125l34.90625-24.933594c1.710937-1.21875 3.722656-1.863281 5.816406-1.863281s4.105469.644531 5.808594 1.855469l139.996094 100c4.511718 3.222656 5.550781 9.457031 2.339843 13.949219-3.191406 4.464843-9.441406 5.5625-13.953125 2.335937l-128.378906-91.699219c-3.476562-2.480468-8.148438-2.480468-11.625 0l-128.371094 91.695313c-4.492187 3.199219-10.753906 2.15625-13.960937-2.332031-3.21875-4.5-2.164063-10.734376 2.335937-13.949219l40.011719-28.578125c4.492187-3.210938 5.535156-9.457032 2.324219-13.949219-3.210938-4.496094-9.457032-5.535156-13.949219-2.324219l-40.011719 28.578125c-13.511718 9.65625-16.617187 28.375-6.984375 41.847657 9.605469 13.453124 28.375 16.589843 41.847657 6.988281l12.570312-8.976563v40.882813s-119.363281 56.8125-119.421875 56.839843c-14.789063 7.394532-20.808594 25.453126-13.410156 40.265626 5.117187 10.214843 15.394531 16.5625 26.832031 16.570312v80h-30c-5.523438 0-10 4.476562-10 10s4.476562 10 10 10zm276-20h-60v-70c0-16.542969 13.457031-30 30-30s30 13.457031 30 30zm126 0v-30c0-5.523438-4.476562-10-10-10s-10 4.476562-10 10v30h-26v-126.863281l86 40.59375v86.269531zm64.550781-118.910156c4.875 2.488281 6.847657 8.476562 4.398438 13.382812-2.277344 4.550782-7.835938 7.105469-13.628907 4.375l-101.320312-47.824218v-22.550782zm-220.550781-194.222656 90 64.289062v248.84375h-40v-70c0-27.570312-22.429688-50-50-50s-50 22.429688-50 50v70h-40v-248.84375zm-224.945312 207.613281c-2.453126-4.914063-.480469-10.902344 4.394531-13.390625l110.550781-52.617188v22.550782l-101.277344 47.804687c-6.128906 2.792969-11.484375.011719-13.667968-4.347656zm28.945312 19.25 86-40.589844v126.859375h-26v-30c0-5.523438-4.476562-10-10-10s-10 4.476562-10 10v30h-40zm0 0"/><path d="m249.753906 317.808594c1.824219 1.460937 4.035156 2.191406 6.246094 2.191406s4.421875-.730469 6.246094-2.191406c30.222656-24.175782 53.753906-38.449219 53.753906-62.757813 0-19.65625-15.375-35.050781-35-35.050781-11.078125 0-19.285156 4.804688-25 10.816406-5.714844-6.011718-13.921875-10.816406-25-10.816406-19.625 0-35 15.394531-35 35.050781 0 24.285157 23.441406 38.511719 53.753906 62.757813zm-18.753906-77.808594c10.996094 0 15.023438 11.628906 15.421875 12.871094 1.269531 4.230468 5.164063 7.128906 9.578125 7.128906s8.308594-2.894531 9.578125-7.128906c.039063-.125 3.992187-12.871094 15.421875-12.871094 9.847656 0 15 7.570312 15 15.050781 0 12.304688-16.5 23.738281-40 42.191407-24.75-19.433594-40-30.175782-40-42.191407 0-7.480469 5.152344-15.050781 15-15.050781zm0 0"/><path d="m167 142c0 5.519531 4.480469 10 10 10s10-4.480469 10-10-4.480469-10-10-10-10 4.480469-10 10zm0 0"/></svg>