<svg height="512pt" viewBox="0 0 512 512.0007" width="512pt" xmlns="http://www.w3.org/2000/svg"><path d="m10 352c-3.359375 0-6.496094 1.6875-8.347656 4.496094-1.851563 2.804687-2.167969 6.355468-.84375 9.441406 14.804687 34.546875 12.679687 29.609375 54.808594 127.882812 4.734374 11.042969 15.558593 18.179688 27.574218 18.179688h345.617188c12.015625 0 22.839844-7.136719 27.574218-18.179688 11.855469-27.667968 44.882813-104.726562 54.808594-127.882812 1.324219-3.089844 1.007813-6.636719-.84375-9.441406-1.851562-2.808594-4.988281-4.496094-8.347656-4.496094h-176v-20h136c3.707031 0 7.113281-2.050781 8.84375-5.332031s1.503906-7.25-.589844-10.3125l-186-272c-2.476562-3.617188-7.019531-5.203125-11.207031-3.90625-4.191406 1.292969-7.046875 5.167969-7.046875 9.550781v302h-20c0-14.933594 0-324.929688 0-342 0-4.5-3.007812-8.445312-7.347656-9.640625-4.335938-1.195313-8.9375.65625-11.242188 4.519531l-79.636718 133.582032c-2.828126 4.746093-1.273438 10.882812 3.46875 13.710937 4.746093 2.828125 10.882812 1.273437 13.710937-3.46875l61.046875-102.398437v265.695312h-158.394531l56.394531-94.59375c2.828125-4.746094 1.273438-10.882812-3.46875-13.710938-4.746094-2.828124-10.882812-1.273437-13.710938 3.46875l-65.410156 109.714844c-1.839844 3.09375-1.882812 6.933594-.105468 10.0625 1.777343 3.128906 5.097656 5.0625 8.695312 5.0625h136v20h-176zm428 133.941406c-1.578125 3.679688-5.1875 6.058594-9.191406 6.058594h-345.617188c-4.003906 0-7.613281-2.378906-9.191406-6.058594l-31.691406-73.941406h427.382812zm40.261719-93.941406h-444.527344l-8.570313-20h461.671876zm-192.261719-309.660156 157.046875 229.660156h-157.046875zm0 249.660156h20v20h-20zm-80 0h20v20h-20zm0 0"/><path d="m146 178c0-5.519531-4.480469-10-10-10s-10 4.480469-10 10 4.480469 10 10 10 10-4.480469 10-10zm0 0"/></svg>