<svg height="512pt" viewBox="0 -16 512 512" width="512pt" xmlns="http://www.w3.org/2000/svg"><path d="m30 480h452c16.542969 0 30-13.457031 30-30v-280c0-16.542969-13.457031-30-30-30h-.355469c.230469-1.628906.355469-3.277344.355469-4.949219 0-19.65625-15.375-35.050781-35-35.050781-5.761719 0-10.738281 1.304688-15 3.398438v-43.398438h50c16.542969 0 30-13.457031 30-30s-13.457031-30-30-30h-452c-16.542969 0-30 13.457031-30 30s13.457031 30 30 30h50v43.398438c-4.261719-2.09375-9.238281-3.398438-15-3.398438-19.625 0-35 15.394531-35 35.050781 0 1.671875.125 3.320313.355469 4.949219h-.355469c-16.542969 0-30 13.457031-30 30v280c0 16.542969 13.457031 30 30 30zm417-360c9.847656 0 15 7.570312 15 15.050781 0 12.394531-16.570312 23.792969-40 42.191407-24.230469-19.03125-40-30.023438-40-42.191407 0-7.480469 5.152344-15.050781 15-15.050781 10.996094 0 15.023438 11.628906 15.421875 12.871094.003906.007812.003906.015625.007813.023437 1.269531 4.207031 5.191406 7.105469 9.570312 7.105469 7.582031 0 9.703125-7.296875 9.578125-7.128906.039063-.125 3.992187-12.871094 15.421875-12.871094zm-427-90c0-5.515625 4.484375-10 10-10h452c5.515625 0 10 4.484375 10 10s-4.484375 10-10 10h-452c-5.515625 0-10-4.484375-10-10zm392 30v43.398438c-4.261719-2.09375-9.238281-3.398438-15-3.398438-19.625 0-35 15.394531-35 35.050781 0 1.671875.125 3.320313.355469 4.949219h-212.710938c.230469-1.628906.355469-3.277344.355469-4.949219 0-19.65625-15.375-35.050781-35-35.050781-5.761719 0-10.738281 1.304688-15 3.398438v-43.398438zm-347 60c7.8125 0 12.96875 5.871094 15.570312 13.308594 1.441407 4.101562 5.308594 6.691406 9.429688 6.691406 7.53125 0 9.65625-7.226562 9.578125-7.128906.039063-.125 3.992187-12.871094 15.421875-12.871094 9.847656 0 15 7.570312 15 15.050781 0 12.394531-16.570312 23.792969-40 42.191407-24.230469-19.03125-40-30.023438-40-42.191407 0-7.480469 5.152344-15.050781 15-15.050781zm-45 50c0-5.515625 4.484375-10 10-10h9.652344c9.386718 11.675781 24.902344 22.453125 44.101562 37.808594 1.824219 1.460937 4.035156 2.191406 6.246094 2.191406s4.421875-.730469 6.246094-2.191406c18.953125-15.152344 34.699218-26.105469 44.105468-37.808594h231.300782c7.199218 8.953125 18.027344 17.402344 31.25 27.699219 4.105468 3.199219 8.351562 6.511719 12.851562 10.109375 1.824219 1.460937 4.035156 2.191406 6.246094 2.191406s4.421875-.730469 6.246094-2.191406c18.953125-15.152344 34.699218-26.105469 44.105468-37.808594h9.648438c5.515625 0 10 4.484375 10 10v280c0 5.515625-4.484375 10-10 10h-452c-5.515625 0-10-4.484375-10-10zm0 0"/><path d="m50 420h412c5.523438 0 10-4.476562 10-10v-180c0-5.523438-4.476562-10-10-10h-250c-5.523438 0-10 4.476562-10 10s4.476562 10 10 10h240v160h-392v-160h72c5.523438 0 10-4.476562 10-10s-4.476562-10-10-10h-82c-5.523438 0-10 4.476562-10 10v180c0 5.523438 4.476562 10 10 10zm0 0"/><path d="m382 280h-252c-5.523438 0-10 4.476562-10 10s4.476562 10 10 10h252c5.523438 0 10-4.476562 10-10s-4.476562-10-10-10zm0 0"/><path d="m382 340h-252c-5.523438 0-10 4.476562-10 10s4.476562 10 10 10h252c5.523438 0 10-4.476562 10-10s-4.476562-10-10-10zm0 0"/><path d="m172 240c5.519531 0 10-4.480469 10-10s-4.480469-10-10-10-10 4.480469-10 10 4.480469 10 10 10zm0 0"/></svg>