<svg height="512pt" viewBox="0 0 512.00039 512" width="512pt" xmlns="http://www.w3.org/2000/svg"><path d="m50 312.996094c-5.519531 0-10 4.480468-10 10 0 5.519531 4.480469 10 10 10s10-4.480469 10-10c0-5.519532-4.480469-10-10-10zm0 0"/><path d="m195.996094 271.996094h200c5.523437 0 10-4.476563 10-10v-144.542969l23.492187 20.136719c4.210938 3.613281 10.519531 3.089844 14.097657-1.082032 3.597656-4.195312 3.109374-10.507812-1.082032-14.101562-14.363281-12.3125-125.980468-107.984375-140-120-3.742187-3.207031-9.269531-3.207031-13.015625 0-14.015625 12.015625-125.632812 107.6875-139.996093 120-4.195313 3.59375-4.679688 9.90625-1.085938 14.101562 3.597656 4.191407 9.910156 4.679688 14.101562 1.082032l23.488282-20.136719v144.542969c0 5.523437 4.480468 10 10 10zm130-20h-60v-62c0-16.539063 13.457031-29.996094 30-29.996094 16.542968 0 30 13.457031 30 29.996094zm-30-228.828125 90 77.144531v151.683594h-40v-62c0-27.566406-22.429688-49.996094-50-49.996094-27.570313 0-50 22.429688-50 49.996094v62h-40v-151.683594zm0 0"/><path d="m459.617188 347.671875-94.277344 32.410156c.417968-2.320312.65625-4.683593.65625-7.085937 0-22.054688-17.945313-40-40-40h-64.757813c-1.71875 0-3.414062-.441406-4.910156-1.285156l-52.832031-29.714844c-10.449219-5.886719-22.316406-9-34.328125-9h-70.890625c-4.125-11.636719-15.242188-20-28.277344-20h-60c-5.523438 0-10 4.480468-10 10v180c0 5.519531 4.476562 10 10 10h60c12.738281 0 23.660156-8.007813 27.996094-19.25 11.320312 1.40625 24.417968 4.757812 32.648437 9.695312.039063.023438 52.359375 30.414063 52.359375 30.414063 19.796875 11.867187 42.457032 18.136719 65.542969 18.136719 18.300781 0 36.035156-3.839844 52.710937-11.410157l67.996094-29.574219c5.066406-2.203124 7.386719-8.09375 5.183594-13.160156-2.203125-5.0625-8.09375-7.382812-13.160156-5.179687 0 0-68.171875 29.648437-68.222656 29.675781-14.078126 6.402344-29.054688 9.652344-44.507813 9.652344-19.484375 0-38.609375-5.300782-55.3125-15.324219-.039063-.027344-52.363281-30.417969-52.363281-30.417969-11.191406-6.695312-27.1875-10.773437-40.871094-12.414062v-120.84375h69.167969c8.578125 0 17.054687 2.222656 24.519531 6.425781l52.832031 29.714844c4.476563 2.523437 9.566407 3.859375 14.71875 3.859375h64.757813c11.027344 0 20 8.972656 20 20 0 11.011718-8.996094 20-20 20h-101.660156c-5.523438 0-10 4.476562-10 10 0 5.519531 4.476562 10 10 10h101.660156c6.558594 0 13.015625-1.632813 18.746094-4.6875 0 0 121.539062-41.777344 121.585937-41.796875 8.960937-3.234375 19.097656-.011719 23.070313 7.335937 5.953124 11.023438 1.027343 23-9.070313 27.042969-.089844.035156-.183594.074219-.273437.113281l-45.417969 19.753906c-5.0625 2.203126-7.382813 8.09375-5.179688 13.160157 2.207031 5.070312 8.101563 7.382812 13.160157 5.179687l45.289062-19.699218c20.652344-8.359376 30.925781-33.152344 19.085938-55.058594-8.691407-16.085938-29.046876-23.238282-47.375-16.667969zm-379.617188 95.367187c-.023438 5.492188-4.507812 9.953126-10 9.953126h-50v-159.996094h50c5.511719 0 10 4.484375 10 10zm0 0"/><path d="m275.996094 100h40c5.523437 0 10-4.480469 10-10 0-5.523438-4.476563-10-10-10h-40c-5.523438 0-10 4.476562-10 10 0 5.519531 4.476562 10 10 10zm0 0"/><path d="m411.996094 445.996094c0-5.519532-4.480469-10-10-10-5.519532 0-10 4.480468-10 10 0 5.519531 4.480468 10 10 10 5.519531 0 10-4.480469 10-10zm0 0"/></svg>