<svg height="512pt" viewBox="0 -16 512.00019 512" width="512pt" xmlns="http://www.w3.org/2000/svg"><path d="m316 400c5.519531 0 10-4.480469 10-10s-4.480469-10-10-10-10 4.480469-10 10 4.480469 10 10 10zm0 0"/><path d="m372 200c0 5.523438 4.476562 10 10 10s10-4.476562 10-10c0-1.050781.316406-2.113281.976562-3.273438 4.601563-8.109374 23.347657-16.726562 49.023438-16.726562 30.523438 0 50 11.847656 50 20 0 5.523438 4.476562 10 10 10s10-4.476562 10-10c0-91.164062-86.367188-155.71875-180-159.777344v-30.222656c0-5.523438-4.476562-10-10-10s-10 4.476562-10 10v30.222656c-94.265625 4.085938-180 69.140625-180 159.777344 0 5.523438 4.476562 10 10 10s10-4.476562 10-10c0-8.152344 19.476562-20 50-20s50 11.847656 50 20c0 5.523438 4.476562 10 10 10s10-4.476562 10-10c0-1.050781.316406-2.113281.976562-3.273438 3.980469-7.011718 18.546876-14.402343 39.023438-16.273437v159.546875h-110.039062c-3.445313 0-6.753907-1.257812-9.328126-3.542969l-96-85.320312c-10.148437-9.023438-24.148437-11.167969-36.539062-5.605469-6.683594 3-11.988281 7.855469-15.46875 13.8125-8.175781-4.628906-18.011719-5.148438-26.910156-1.15625-20.367188 9.140625-23.519532 35.667969-7.648438 49.789062l134.316406 119.386719c4.589844 4.082031 9.894532 7.246094 15.617188 9.402344v33.238281c0 5.519532 4.476562 10 10 10h80c5.519531 0 10-4.480468 10-10v-30h112v30c0 5.519532 4.476562 10 10 10h80c5.519531 0 10-4.480468 10-10v-30h10c16.542969 0 30-13.460937 30-30.003906 0-16.539062-13.457031-30-30-30h-10v-5.96875c0-18.765625-15.265625-34.03125-34.03125-34.03125h-105.96875v-159.550781c24.707031 2.214843 40 12.328125 40 19.550781zm-132 260h-60v-20h60zm212 0h-60v-20h60zm0-85.96875v5.96875h-96c-5.523438 0-10 4.480469-10 10 0 5.523438 4.476562 10 10 10h126c5.515625 0 10 4.488281 10 10 0 5.515625-4.484375 10-10 10h-304.378906c-7.582032 0-14.625-2.847656-19.949219-7.582031l-134.316406-119.386719c-5.1875-4.617188-4.398438-13.484375 2.546875-16.597656 1.386718-.621094 6.246094-2.339844 10.734375 1.652344l128.652343 114.351562c5.507813 4.878906 12.582032 7.5625 19.917969 7.5625h90.792969c5.519531 0 10-4.476562 10-10 0-5.519531-4.480469-10-10-10h-90.792969c-2.445312 0-4.8125-.898438-6.644531-2.523438l-118.015625-104.898437c1.101563-3.886719 3.824219-7.042969 7.738281-8.800781 5.183594-2.332032 10.816406-1.464844 15.0625 2.308594l96 85.320312c6.234375 5.542969 14.265625 8.59375 22.613282 8.59375h236.007812c7.738281 0 14.03125 6.292969 14.03125 14.03125zm35.875-204.71875c-12.113281-5.855469-28.003906-9.3125-45.875-9.3125-19.941406 0-37.8125 4.34375-50.507812 11.753906-1.890626-35.023437-10.300782-79.71875-30.835938-108.101562 63.214844 12.152344 112.980469 53.4375 127.21875 105.660156zm-285.875-9.3125c-17.871094 0-33.761719 3.457031-45.875 9.3125 14.238281-52.222656 64-93.507812 127.21875-105.660156-20.539062 28.386718-28.949219 73.09375-30.835938 108.121094-12.546874-7.339844-30.261718-11.773438-50.507812-11.773438zm70.546875 11.144531c3.878906-66.371093 27.796875-111.144531 49.453125-111.144531s45.578125 44.785156 49.453125 111.171875c-12.476563-6.980469-29.765625-11.171875-49.453125-11.171875-19.390625 0-36.832031 4.101562-49.453125 11.144531zm0 0"/></svg>