<svg height="511pt" viewBox="1 -7 511.99964 511" width="511pt" xmlns="http://www.w3.org/2000/svg"><path d="m456.496094 300.570312c-4.199219-4.203124-7.039063-9.5-8.203125-15.324218-8.4375-42.1875-14.453125-59.972656-32.3125-112.773438-7.910157-23.386718-31.316407-94.007812-31.386719-94.183594-7.769531-19.882812-28.175781-31.324218-47.453125-26.601562-20.074219 4.914062-33.03125 23.964844-30.179687 44.339844l7.476562 62.59375-41.261719-41.035156c-3.914062-3.894532-10.246093-3.878907-14.140625.039062-3.894531 3.914062-3.875 10.242188.039063 14.136719l61.648437 61.308593c3.015625 2.996094 7.601563 3.757813 11.429688 1.894532 3.824218-1.863282 6.050781-5.945313 5.546875-10.171875 0 0-10.917969-91.398438-10.929688-91.476563-1.457031-10.195312 5.046875-19.746094 15.125-22.210937 9.351563-2.289063 19.84375 3.945312 23.984375 14.21875 13.421875 41.101562 23.257813 70.179687 31.164063 93.554687 17.550781 51.882813 23.460937 69.363282 31.648437 110.285156 1.9375 9.707032 6.667969 18.539063 13.679688 25.550782l45.484375 45.363281-113.101563 113.097656-44.621094-44.503906c-7.65625-7.652344-17.753906-12.589844-29.210937-14.277344-10.617187-1.554687-21.125-3.824219-31.453125-6.730469 1.746094-.757812 3.496094-1.511718 5.253906-2.265624 9.492188-4.0625 16.339844-12.59375 18.3125-22.816407 3.753906-19.457031-11.042968-37.226562-30.570312-37.226562h-23.601563l67.703125-67.476563c11.726563-11.71875 11.722656-30.695312.003906-42.417968-2.761718-2.761719-5.933593-4.859376-9.320312-6.316407 6.542969-11.449219 4.9375-26.324219-4.824219-36.085937-9.765625-9.765625-24.636719-11.367188-36.085937-4.824219-1.457032-3.386719-3.558594-6.5625-6.320313-9.320313-11.71875-11.722656-30.695312-11.722656-42.417969 0l-8.289062 8.289063c-1.421875-3.003906-3.371094-5.816406-5.84375-8.289063-9.378906-9.378906-23.199219-11.125-34.179688-5.84375-.949218-.941406 11.664063 11.566407-105.195312-104.324218-7.792969-7.800782-7.796875-20.488282-.003906-28.28125 7.820312-7.820313 20.460937-7.820313 28.277344 0 122.835937 121.820312 110.226562 109.3125 111.140624 110.21875 3.925782 3.882812 10.253907 3.847656 14.136719-.078125 3.882813-3.925781 3.847657-10.253907-.078125-14.136719l-82.789062-81.871094c-7.808594-7.804687-7.8125-20.460937 0-28.269531 7.753906-7.753906 20.390625-7.882813 28.296875.023437l49.300781 49.027344c3.914062 3.890625 10.242188 3.875 14.136719-.039062 3.894531-3.917969 3.875-10.246094-.039063-14.140625l-49.28125-49.007813c-15.59375-15.589844-40.960937-15.589844-56.550781 0-5.042969 5.046875-8.5625 11.203125-10.351563 17.917969l-3.78125-3.78125c-15.632812-15.632813-40.917968-15.632813-56.550781 0-15.585937 15.582031-15.585937 40.949219 0 56.550781l3.816407 3.816406c-6.589844 1.746094-12.816407 5.179688-17.957032 10.320313-15.574218 15.589844-15.574218 40.957031.042969 56.589844l3.769531 3.726562c-6.726562 1.785157-12.894531 5.3125-17.945312 10.367188-15.589844 15.589843-15.589844 40.960937.0625 56.609375l51.59375 50.753906c-9.28125 17.933594-14.167969 37.871094-14.167969 58.148438 0 2.667968-1.039063 5.175781-2.929687 7.066406l-43.132813 43.144531c-3.90625 3.902344-3.902344 10.230469 0 14.136719l84.820313 84.820312c3.90625 3.902344 10.230468 3.902344 14.136718 0l43.144532-43.136718c1.890624-1.886719 4.398437-2.929688 7.066406-2.929688 38.894531 0 65.925781-7.949219 89.054687-16.902344 18.285157 6.949219 37.332031 11.929688 56.6875 14.765625 7.167969 1.054688 13.382813 4.042969 17.988281 8.644531l51.699219 51.5625c1.953125 1.945313 4.507813 2.917969 7.0625 2.917969 2.558594 0 5.113281-.976562 7.066407-2.925781l127.234374-127.238281c1.878907-1.875 2.929688-4.421875 2.929688-7.074219-.003906-2.652344-1.058594-5.195312-2.9375-7.070312zm-416.542969-189.421874c7.730469-7.726563 20.347656-7.785157 28.136719-.132813 10.992187 10.867187 64.824218 64.089844 75.863281 75.003906l-28.277344 28.277344-75.71875-74.867187c-7.789062-7.796876-7.789062-20.488282-.003906-28.28125zm-14.128906 70.679687c9.847656-9.855469 18.324219-6.144531 29.933593 1.339844l45.78125 45.265625-15.3125 15.316406c-4.351562 4.347656-8.367187 9.019531-12.03125 13.945312l-48.375-47.582031c-7.796874-7.796875-7.796874-20.484375.003907-28.285156zm105.246093 243.277344-36.078124 36.066406-70.683594-70.683594 36.070312-36.074219c5.664063-5.667968 8.785156-13.195312 8.785156-21.207031 0-19.300781 5.246094-38.25 15.179688-54.796875 4.472656-7.460937 9.863281-14.367187 16.019531-20.523437l64.835938-64.835938c3.902343-3.902343 10.21875-3.914062 14.132812 0 3.851563 3.847657 3.890625 10.148438.09375 14.039063-.054687.058594-.113281.117187-.167969.179687l-42.339843 42.328125c-3.902344 3.902344-3.902344 10.234375 0 14.136719 3.902343 3.902344 10.230469 3.90625 14.136719.003906 6.324218-6.328125 54.085937-54.089843 70.6875-70.6875 3.898437-3.898437 10.226562-3.914062 14.140624 0 3.898438 3.898438 3.898438 10.242188 0 14.140625l-70.683593 70.6875c-3.90625 3.902344-3.90625 10.230469 0 14.136719 3.90625 3.902344 10.230469 3.902344 14.136719 0 10.300781-10.300781 78.710937-78.710937 84.820312-84.820313 3.898438-3.898437 10.238281-3.894531 14.132812 0 3.894532 3.894532 3.894532 10.234376 0 14.132813-9.515624 9.515625-75.828124 75.828125-84.820312 84.820313-3.902344 3.902343-3.902344 10.234374 0 14.136718s10.230469 3.902344 14.136719 0l70.675781-70.675781c.003906-.003906.007812-.003906.011719-.007813 3.898437-3.890624 10.242187-3.898437 14.140625 0 3.929687 3.929688 3.878906 10.261719.011718 14.128907l-84.828124 84.542969c-2.867188 2.855468-3.726563 7.15625-2.183594 10.898437 1.546875 3.738281 5.191406 6.175781 9.238281 6.175781h47.792969c6.769531 0 12.359375 6.105469 10.941406 13.445313-1.367188 7.089843-6.679688 8.273437-13.601562 11.265625-7.613282 3.289062-14.800782 6.398437-22.226563 9.347656-22.09375 8.785156-47.71875 16.914062-85.300781 16.914062-8.011719 0-15.542969 3.121094-21.207032 8.785157zm0 0"/><path d="m230.746094 89.371094c-3.910156 3.910156-3.910156 10.238281 0 14.136718 3.898437 3.910157 10.238281 3.910157 14.136718 0 3.90625-3.898437 3.90625-10.226562 0-14.136718-3.898437-3.898438-10.238281-3.898438-14.136718 0zm0 0"/></svg>