<svg height="512pt" viewBox="0 -36 512 512" width="512pt" xmlns="http://www.w3.org/2000/svg"><path d="m256 260c-5.519531 0-10 4.480469-10 10s4.480469 10 10 10 10-4.480469 10-10-4.480469-10-10-10zm0 0"/><path d="m472 320h-7.382812c3.414062-5.886719 5.382812-12.71875 5.382812-20 0-22.054688-17.945312-40-40-40h-7.382812c3.414062-5.886719 5.382812-12.71875 5.382812-20 0-22.054688-17.945312-40-40-40h-27.382812c3.414062-5.886719 5.382812-12.71875 5.382812-20 0-22.054688-17.945312-40-40-40h-5.382812c3.414062-5.886719 5.382812-12.71875 5.382812-20 0-18.910156-13.199219-34.789062-30.863281-38.933594 6.789062-8.539062 10.863281-19.332031 10.863281-31.066406 0-27.570312-22.429688-50-50-50s-50 22.429688-50 50c0 11.734375 4.074219 22.527344 10.863281 31.066406-17.664062 4.144532-30.863281 20.023438-30.863281 38.933594 0 7.28125 1.964844 14.113281 5.382812 20h-5.382812c-22.054688 0-40 17.945312-40 40 0 7.28125 1.964844 14.113281 5.382812 20h-27.382812c-22.054688 0-40 17.945312-40 40 0 7.28125 1.964844 14.113281 5.382812 20h-7.382812c-22.054688 0-40 17.945312-40 40 0 7.28125 1.964844 14.113281 5.382812 20h-7.382812c-22.054688 0-40 17.945312-40 40s17.945312 40 40 40h87.007812c4.644532 22.796875 24.84375 40 48.992188 40h160c24.144531 0 44.347656-17.203125 48.992188-40h87.007812c22.054688 0 40-17.945312 40-40s-17.945312-40-40-40zm-216-300c16.542969 0 30 13.457031 30 30s-13.457031 30-30 30-30-13.457031-30-30 13.457031-30 30-30zm-50 100c0-11.027344 8.972656-20 20-20h60c11.027344 0 20 8.972656 20 20s-8.972656 20-20 20h-60c-11.027344 0-20-8.972656-20-20zm-40 60c0-11.027344 8.972656-20 20-20h140c11.027344 0 20 8.972656 20 20s-8.972656 20-20 20h-140c-11.027344 0-20-8.972656-20-20zm-104 120c0-11.027344 8.972656-20 20-20h134c5.523438 0 10-4.476562 10-10s-4.476562-10-10-10h-92c-11.027344 0-20-8.972656-20-20s8.972656-20 20-20h264c11.027344 0 20 8.972656 20 20s-8.972656 20-20 20h-92c-5.523438 0-10 4.476562-10 10s4.476562 10 10 10h134c11.027344 0 20 8.972656 20 20s-8.972656 20-20 20h-348c-11.027344 0-20-8.972656-20-20zm274 120h-160c-13.035156 0-24.152344-8.371094-28.28125-20.011719h216.5625c-4.128906 11.640625-15.246094 20.011719-28.28125 20.011719zm136-40h-432c-11.027344 0-20-8.972656-20-20s8.972656-20 20-20h432c11.027344 0 20 8.972656 20 20s-8.972656 20-20 20zm0 0"/></svg>