<svg height="512pt" viewBox="0 -26 512 512" width="512pt" xmlns="http://www.w3.org/2000/svg"><path d="m482 180h-30v-20h10c5.523438 0 10-4.476562 10-10 0-38.597656-31.402344-70-70-70h-106v-20c16.542969 0 30-13.457031 30-30s-13.457031-30-30-30h-80c-16.542969 0-30 13.457031-30 30s13.457031 30 30 30v20h-106c-38.597656 0-70 31.402344-70 70 0 5.523438 4.476562 10 10 10h10v20h-30c-16.542969 0-30 13.457031-30 30s13.457031 30 30 30h30v44c0 5.523438 4.476562 10 10 10s10-4.476562 10-10v-124h352v250c0 16.542969-13.457031 30-30 30h-292c-16.542969 0-30-13.457031-30-30v-46c0-5.523438-4.476562-10-10-10s-10 4.476562-10 10v46c0 27.570312 22.429688 50 50 50h292c27.570312 0 50-22.429688 50-50v-170h30c16.542969 0 30-13.457031 30-30s-13.457031-30-30-30zm-452 40c-5.515625 0-10-4.484375-10-10s4.484375-10 10-10h30v20zm176-190c0-5.515625 4.484375-10 10-10h80c5.515625 0 10 4.484375 10 10s-4.484375 10-10 10h-80c-5.515625 0-10-4.484375-10-10zm30 30h40v20h-40zm-126 40h292c24.144531 0 44.351562 17.207031 48.996094 40h-389.992188c4.644532-22.792969 24.851563-40 48.996094-40zm372 120h-30v-20h30c5.515625 0 10 4.484375 10 10s-4.484375 10-10 10zm0 0"/><path d="m70 334c5.519531 0 10-4.480469 10-10s-4.480469-10-10-10-10 4.480469-10 10 4.480469 10 10 10zm0 0"/></svg>